<?xml version="1.0" encoding="UTF-8" standalone="no"?>
<svg
   xmlns:dc="http://purl.org/dc/elements/1.1/"
   xmlns:cc="http://creativecommons.org/ns#"
   xmlns:rdf="http://www.w3.org/1999/02/22-rdf-syntax-ns#"
   xmlns:svg="http://www.w3.org/2000/svg"
   xmlns="http://www.w3.org/2000/svg"
   xmlns:sodipodi="http://sodipodi.sourceforge.net/DTD/sodipodi-0.dtd"
   xmlns:inkscape="http://www.inkscape.org/namespaces/inkscape"
   version="1.1"
   viewBox="0 0 489.72574 261.72202"
   stroke-miterlimit="10"
   id="svg119"
   sodipodi:docname="preprocessing.svg"
   width="489.72574"
   height="261.72202"
   style="fill:none;stroke:none;stroke-linecap:square;stroke-miterlimit:10"
   inkscape:version="0.92.4 (5da689c313, 2019-01-14)">
  <metadata
     id="metadata125">
    <rdf:RDF>
      <cc:Work
         rdf:about="">
        <dc:format>image/svg+xml</dc:format>
        <dc:type
           rdf:resource="http://purl.org/dc/dcmitype/StillImage" />
        <dc:title></dc:title>
      </cc:Work>
    </rdf:RDF>
  </metadata>
  <defs
     id="defs123" />
  <sodipodi:namedview
     pagecolor="#ffffff"
     bordercolor="#666666"
     borderopacity="1"
     objecttolerance="10"
     gridtolerance="10"
     guidetolerance="10"
     inkscape:pageopacity="0"
     inkscape:pageshadow="2"
     inkscape:window-width="1366"
     inkscape:window-height="705"
     id="namedview121"
     showgrid="false"
     inkscape:zoom="1.25"
     inkscape:cx="244.1273"
     inkscape:cy="88.811034"
     inkscape:window-x="-8"
     inkscape:window-y="-8"
     inkscape:window-maximized="1"
     inkscape:current-layer="g117" />
  <clipPath
     id="p.0">
    <path
       d="M 0,0 H 960 V 720 H 0 Z"
       id="path2"
       inkscape:connector-curvature="0"
       style="clip-rule:nonzero" />
  </clipPath>
  <g
     clip-path="url(#p.0)"
     id="g117"
     transform="translate(-235.8727,-187.08902)">
    <path
       d="M 0,0 H 960 V 720 H 0 Z"
       id="path5"
       inkscape:connector-curvature="0"
       style="fill:#000000;fill-opacity:0;fill-rule:evenodd" />
    <path
       d="m 411.3517,272.61563 v 0 c 0,-3.89072 3.15405,-7.04477 7.04474,-7.04477 h 28.17822 v 0 c 1.86838,0 3.66025,0.74222 4.98139,2.06336 1.32113,1.32116 2.06335,3.11303 2.06335,4.98141 v 168.65063 c 0,3.89072 -3.15405,7.04477 -7.04474,7.04477 h -28.17822 c -3.89069,0 -7.04474,-3.15405 -7.04474,-7.04477 z"
       id="path7"
       inkscape:connector-curvature="0"
       style="fill:#ff9900;fill-rule:evenodd" />
    <path
       d="m 411.3517,272.61563 v 0 c 0,-3.89072 3.15405,-7.04477 7.04474,-7.04477 h 28.17822 v 0 c 1.86838,0 3.66025,0.74222 4.98139,2.06336 1.32113,1.32116 2.06335,3.11303 2.06335,4.98141 v 168.65063 c 0,3.89072 -3.15405,7.04477 -7.04474,7.04477 h -28.17822 c -3.89069,0 -7.04474,-3.15405 -7.04474,-7.04477 z"
       id="path9"
       inkscape:connector-curvature="0"
       style="fill-rule:evenodd;stroke:#000000;stroke-width:1;stroke-linecap:butt;stroke-linejoin:round" />
    <path
       d="m 424.62494,304.11594 h 4.76562 v 0.60938 h -0.35937 q -0.48438,0 -0.64063,0.0937 -0.15625,0.0781 -0.15625,0.21875 0,0.17187 0.26563,0.53125 l 1.60937,2.20312 1.26563,-1.53125 q 0.42187,-0.5 0.42187,-0.95312 0,-0.28125 -0.17187,-0.42188 -0.17188,-0.14062 -0.5,-0.14062 h -0.3125 v -0.60938 h 3.79687 v 0.60938 h -0.28125 q -0.35937,0 -0.64062,0.15625 -0.28125,0.14062 -0.625,0.54687 l -2.5,2.95313 3.1875,4.25 q 0.23437,0.29687 0.42187,0.40625 0.1875,0.0937 0.4375,0.0937 h 0.3125 v 0.60937 h -4.6875 v -0.60937 h 0.5 q 0.34375,0 0.5,-0.10938 0.15625,-0.10937 0.15625,-0.29687 0,-0.14063 -0.20312,-0.375 l -0.0625,-0.0937 -1.79688,-2.4375 -1.5,1.84375 q -0.29687,0.375 -0.29687,0.79687 0,0.3125 0.17187,0.46875 0.21875,0.20313 0.53125,0.20313 h 0.35938 v 0.60937 h -3.96875 v -0.60937 h 0.25 q 0.29687,0 0.64062,-0.1875 0.54688,-0.32813 0.84375,-0.6875 l 2.51563,-3.01563 -3.03125,-4.01562 q -0.23438,-0.3125 -0.40625,-0.40625 -0.17188,-0.0937 -0.4375,-0.0937 h -0.375 z"
       id="path11"
       inkscape:connector-curvature="0"
       style="fill:#000000;fill-rule:nonzero" />
    <path
       d="m 435.60947,313.2722 q 0.67187,-0.0469 1.14062,-0.17188 0.46875,-0.125 0.9375,-0.39062 h 0.32813 v 5.29687 q 0,0.15625 0.0781,0.25 0.0937,0.0781 0.23438,0.0781 h 0.8125 v 0.40625 h -3.35938 v -0.40625 h 0.625 q 0.25,0 0.34375,-0.0937 0.10938,-0.10938 0.10938,-0.35938 v -3.9375 q 0,-0.14062 -0.0937,-0.20312 -0.0781,-0.0781 -0.25,-0.0781 h -0.90625 z"
       id="path13"
       inkscape:connector-curvature="0"
       style="fill:#000000;fill-rule:nonzero" />
    <path
       d="m 424.62494,320.11594 h 4.76562 v 0.60938 h -0.35937 q -0.48438,0 -0.64063,0.0937 -0.15625,0.0781 -0.15625,0.21875 0,0.17187 0.26563,0.53125 l 1.60937,2.20312 1.26563,-1.53125 q 0.42187,-0.5 0.42187,-0.95312 0,-0.28125 -0.17187,-0.42188 -0.17188,-0.14062 -0.5,-0.14062 h -0.3125 v -0.60938 h 3.79687 v 0.60938 h -0.28125 q -0.35937,0 -0.64062,0.15625 -0.28125,0.14062 -0.625,0.54687 l -2.5,2.95313 3.1875,4.25 q 0.23437,0.29687 0.42187,0.40625 0.1875,0.0937 0.4375,0.0937 h 0.3125 v 0.60937 h -4.6875 v -0.60937 h 0.5 q 0.34375,0 0.5,-0.10938 0.15625,-0.10937 0.15625,-0.29687 0,-0.14063 -0.20312,-0.375 l -0.0625,-0.0937 -1.79688,-2.4375 -1.5,1.84375 q -0.29687,0.375 -0.29687,0.79687 0,0.3125 0.17187,0.46875 0.21875,0.20313 0.53125,0.20313 h 0.35938 v 0.60937 h -3.96875 v -0.60937 h 0.25 q 0.29687,0 0.64062,-0.1875 0.54688,-0.32813 0.84375,-0.6875 l 2.51563,-3.01563 -3.03125,-4.01562 q -0.23438,-0.3125 -0.40625,-0.40625 -0.17188,-0.0937 -0.4375,-0.0937 h -0.375 z"
       id="path15"
       inkscape:connector-curvature="0"
       style="fill:#000000;fill-rule:nonzero" />
    <path
       d="m 436.20322,333.61594 h 2 q 0.28125,0 0.4375,-0.1875 0.15625,-0.1875 0.26562,-0.79687 h 0.42188 l -0.125,2.07812 h -3.9375 v -0.375 q 0.3125,-0.5 1.25,-1.54687 0.82812,-0.92188 1.07812,-1.39063 0.32813,-0.625 0.32813,-1.26562 0,-0.54688 -0.25,-0.82813 -0.23438,-0.28125 -0.67188,-0.28125 -0.42187,0 -0.71875,0.23438 -0.28125,0.21875 -0.28125,0.46875 0,0.0937 0.0781,0.15625 0.0625,0.0625 0.29687,0.125 0.53125,0.14062 0.53125,0.57812 0,0.29688 -0.20312,0.5 -0.20313,0.1875 -0.5,0.1875 -0.32813,0 -0.53125,-0.26562 -0.20313,-0.26563 -0.20313,-0.75 0,-0.6875 0.4375,-1.14063 0.54688,-0.54687 1.46875,-0.54687 0.84375,0 1.34375,0.46875 0.51563,0.45312 0.51563,1.125 0,0.375 -0.125,0.67187 -0.17188,0.40625 -0.45313,0.73438 -0.28125,0.32812 -0.95312,0.8125 -0.71875,0.51562 -1,0.75 -0.26563,0.23437 -0.5,0.48437 z"
       id="path17"
       inkscape:connector-curvature="0"
       style="fill:#000000;fill-rule:nonzero" />
    <path
       d="m 424.62494,336.11594 h 4.76562 v 0.60938 h -0.35937 q -0.48438,0 -0.64063,0.0937 -0.15625,0.0781 -0.15625,0.21875 0,0.17187 0.26563,0.53125 l 1.60937,2.20312 1.26563,-1.53125 q 0.42187,-0.5 0.42187,-0.95312 0,-0.28125 -0.17187,-0.42188 -0.17188,-0.14062 -0.5,-0.14062 h -0.3125 v -0.60938 h 3.79687 v 0.60938 h -0.28125 q -0.35937,0 -0.64062,0.15625 -0.28125,0.14062 -0.625,0.54687 l -2.5,2.95313 3.1875,4.25 q 0.23437,0.29687 0.42187,0.40625 0.1875,0.0937 0.4375,0.0937 h 0.3125 v 0.60937 h -4.6875 v -0.60937 h 0.5 q 0.34375,0 0.5,-0.10938 0.15625,-0.10937 0.15625,-0.29687 0,-0.14063 -0.20312,-0.375 l -0.0625,-0.0937 -1.79688,-2.4375 -1.5,1.84375 q -0.29687,0.375 -0.29687,0.79687 0,0.3125 0.17187,0.46875 0.21875,0.20313 0.53125,0.20313 h 0.35938 v 0.60937 h -3.96875 v -0.60937 h 0.25 q 0.29687,0 0.64062,-0.1875 0.54688,-0.32813 0.84375,-0.6875 l 2.51563,-3.01563 -3.03125,-4.01562 q -0.23438,-0.3125 -0.40625,-0.40625 -0.17188,-0.0937 -0.4375,-0.0937 h -0.375 z"
       id="path19"
       inkscape:connector-curvature="0"
       style="fill:#000000;fill-rule:nonzero" />
    <path
       d="m 437.90634,347.49094 q 0.71875,0.1875 1.07812,0.625 0.35938,0.42188 0.35938,1.01563 0,0.78125 -0.5625,1.26562 -0.5625,0.46875 -1.5625,0.46875 -0.89063,0 -1.39063,-0.40625 -0.48437,-0.42187 -0.48437,-1.07812 0,-0.39063 0.20312,-0.60938 0.20313,-0.23437 0.51563,-0.23437 0.28125,0 0.45312,0.1875 0.1875,0.17187 0.1875,0.4375 0,0.35937 -0.375,0.57812 -0.15625,0.0781 -0.1875,0.125 -0.0312,0.0469 -0.0312,0.10938 0,0.15625 0.20313,0.28125 0.29687,0.1875 0.67187,0.1875 0.48438,0 0.76563,-0.32813 0.28125,-0.32812 0.28125,-1.01562 0,-0.6875 -0.26563,-1.01563 -0.25,-0.32812 -0.64062,-0.32812 -0.0937,0 -0.25,0.0312 -0.15625,0.0312 -0.23438,0.0312 -0.125,0 -0.20312,-0.0625 -0.0625,-0.0781 -0.0625,-0.20313 0,-0.125 0.0781,-0.1875 0.0781,-0.0781 0.21875,-0.0781 0.0625,0 0.1875,0.0156 0.125,0.0156 0.21875,0.0156 0.39063,0 0.60938,-0.26563 0.21875,-0.26562 0.21875,-0.89062 0,-0.625 -0.25,-0.89063 -0.23438,-0.28125 -0.67188,-0.28125 -0.3125,0 -0.46875,0.10938 -0.15625,0.0937 -0.15625,0.20312 0,0.0625 0.0156,0.0937 0.0312,0.0312 0.125,0.10938 0.21875,0.17187 0.28125,0.29687 0.0625,0.10938 0.0625,0.26563 0,0.26562 -0.17188,0.4375 -0.17187,0.17187 -0.4375,0.17187 -0.28125,0 -0.46875,-0.20312 -0.1875,-0.21875 -0.1875,-0.5625 0,-0.46875 0.34375,-0.85938 0.45313,-0.48437 1.32813,-0.48437 0.57812,0 1,0.20312 0.42187,0.1875 0.64062,0.53125 0.21875,0.34375 0.21875,0.76563 0,0.4375 -0.28125,0.79687 -0.26562,0.35938 -0.92187,0.625 z"
       id="path21"
       inkscape:connector-curvature="0"
       style="fill:#000000;fill-rule:nonzero" />
    <path
       d="m 432.4778,359.7097 q 0.45312,0 0.78125,0.32812 0.32812,0.32813 0.32812,0.78125 0,0.46875 -0.32812,0.79688 -0.32813,0.3125 -0.78125,0.3125 -0.4375,0 -0.76563,-0.3125 -0.32812,-0.32813 -0.32812,-0.79688 0,-0.45312 0.32812,-0.78125 0.32813,-0.32812 0.76563,-0.32812 z"
       id="path23"
       inkscape:connector-curvature="0"
       style="fill:#000000;fill-rule:nonzero" />
    <path
       d="m 432.4778,375.7097 q 0.45312,0 0.78125,0.32812 0.32812,0.32813 0.32812,0.78125 0,0.46875 -0.32812,0.79688 -0.32813,0.3125 -0.78125,0.3125 -0.4375,0 -0.76563,-0.3125 -0.32812,-0.32813 -0.32812,-0.79688 0,-0.45312 0.32812,-0.78125 0.32813,-0.32812 0.76563,-0.32812 z"
       id="path25"
       inkscape:connector-curvature="0"
       style="fill:#000000;fill-rule:nonzero" />
    <path
       d="m 432.4778,391.7097 q 0.45312,0 0.78125,0.32812 0.32812,0.32813 0.32812,0.78125 0,0.46875 -0.32812,0.79688 -0.32813,0.3125 -0.78125,0.3125 -0.4375,0 -0.76563,-0.3125 -0.32812,-0.32813 -0.32812,-0.79688 0,-0.45312 0.32812,-0.78125 0.32813,-0.32812 0.76563,-0.32812 z"
       id="path27"
       inkscape:connector-curvature="0"
       style="fill:#000000;fill-rule:nonzero" />
    <path
       d="m 424.1331,400.11594 h 4.76563 v 0.60938 h -0.35938 q -0.48437,0 -0.64062,0.0937 -0.15625,0.0781 -0.15625,0.21875 0,0.17187 0.26562,0.53125 l 1.60938,2.20312 1.26562,-1.53125 q 0.42188,-0.5 0.42188,-0.95312 0,-0.28125 -0.17188,-0.42188 -0.17187,-0.14062 -0.5,-0.14062 h -0.3125 v -0.60938 h 3.79688 v 0.60938 h -0.28125 q -0.35938,0 -0.64063,0.15625 -0.28125,0.14062 -0.625,0.54687 l -2.5,2.95313 3.1875,4.25 q 0.23438,0.29687 0.42188,0.40625 0.1875,0.0937 0.4375,0.0937 h 0.3125 v 0.60937 h -4.6875 v -0.60937 h 0.5 q 0.34375,0 0.5,-0.10938 0.15625,-0.10937 0.15625,-0.29687 0,-0.14063 -0.20313,-0.375 l -0.0625,-0.0937 -1.79687,-2.4375 -1.5,1.84375 q -0.29688,0.375 -0.29688,0.79687 0,0.3125 0.17188,0.46875 0.21875,0.20313 0.53125,0.20313 h 0.35937 v 0.60937 h -3.96875 v -0.60937 h 0.25 q 0.29688,0 0.64063,-0.1875 0.54687,-0.32813 0.84375,-0.6875 l 2.51562,-3.01563 -3.03125,-4.01562 q -0.23437,-0.3125 -0.40625,-0.40625 -0.17187,-0.0937 -0.4375,-0.0937 h -0.375 z"
       id="path29"
       inkscape:connector-curvature="0"
       style="fill:#000000;fill-rule:nonzero" />
    <path
       d="m 440.102,414.3347 v 0.40625 h -2.45313 v -0.40625 h 0.26563 q 0.20312,0 0.29687,-0.0937 0.10938,-0.10938 0.10938,-0.3125 v -1.75 q 0,-0.45313 -0.21875,-0.6875 -0.20313,-0.25 -0.53125,-0.25 -0.45313,0 -0.75,0.34375 -0.28125,0.32812 -0.28125,0.98437 v 1.35938 q 0,0.20312 0.0937,0.3125 0.10937,0.0937 0.26562,0.0937 h 0.3125 v 0.40625 h -2.53125 v -0.40625 h 0.32813 q 0.1875,0 0.28125,-0.0937 0.10937,-0.10938 0.10937,-0.3125 v -2.40625 q 0,-0.21875 -0.14062,-0.32813 -0.14063,-0.125 -0.375,-0.125 h -0.17188 v -0.39062 l 1.6875,-0.0781 q 0.0937,0.35938 0.14063,0.875 0.35937,-0.46875 0.75,-0.70312 0.40625,-0.25 0.85937,-0.25 0.60938,0 0.95313,0.40625 0.35937,0.40625 0.35937,1.125 v 1.875 q 0,0.21875 0.0937,0.3125 0.0937,0.0937 0.3125,0.0937 z"
       id="path31"
       inkscape:connector-curvature="0"
       style="fill:#000000;fill-rule:nonzero" />
    <path
       d="m 236.3727,336.98315 v 0 c 0,-5.51138 4.46785,-9.97922 9.9792,-9.97922 h 64.29358 c 2.64664,0 5.18488,1.05139 7.05637,2.92285 1.87146,1.87146 2.92282,4.4097 2.92282,7.05637 v 39.91559 c 0,5.51138 -4.46784,9.97922 -9.97919,9.97922 H 246.3519 c -5.51135,0 -9.9792,-4.46784 -9.9792,-9.97922 z"
       id="path33"
       inkscape:connector-curvature="0"
       style="fill:#00ffff;fill-rule:evenodd" />
    <path
       d="m 236.3727,336.98315 v 0 c 0,-5.51138 4.46785,-9.97922 9.9792,-9.97922 h 64.29358 c 2.64664,0 5.18488,1.05139 7.05637,2.92285 1.87146,1.87146 2.92282,4.4097 2.92282,7.05637 v 39.91559 c 0,5.51138 -4.46784,9.97922 -9.97919,9.97922 H 246.3519 c -5.51135,0 -9.9792,-4.46784 -9.9792,-9.97922 z"
       id="path35"
       inkscape:connector-curvature="0"
       style="fill-rule:evenodd;stroke:#000000;stroke-width:1;stroke-linecap:butt;stroke-linejoin:round" />
    <path
       d="m 253.73328,344.11594 h 5.03125 q 1.21875,0 1.98438,0.3125 0.78125,0.3125 1.15625,0.85938 0.375,0.54687 0.375,1.20312 0,1.0625 -0.95313,1.71875 -0.71875,0.5 -2.21875,0.65625 0.75,0.125 1.15625,0.40625 0.40625,0.26563 0.71875,0.79688 0.42188,0.70312 0.67188,1.6875 0.17187,0.625 0.29687,0.78125 0.125,0.17187 0.28125,0.17187 0.42188,0 0.5,-1.14062 h 0.57813 q -0.0625,1.20312 -0.54688,1.73437 -0.46875,0.51563 -1.32812,0.51563 -0.625,0 -1,-0.25 -0.375,-0.25 -0.5625,-0.73438 -0.125,-0.28125 -0.32813,-1.3125 -0.23437,-1.21875 -0.4375,-1.625 -0.1875,-0.42187 -0.5,-0.625 -0.29687,-0.20312 -0.75,-0.20312 h -0.70312 v 3.54687 q 0,0.23438 0.125,0.35938 0.20312,0.15625 0.46875,0.15625 h 0.85937 v 0.60937 h -4.875 v -0.60937 h 0.76563 q 0.28125,0 0.4375,-0.14063 0.15625,-0.15625 0.15625,-0.4375 v -7.25 q 0,-0.29687 -0.14063,-0.4375 -0.14062,-0.14062 -0.39062,-0.14062 h -0.82813 z m 3.42188,4.35938 h 0.8125 q 1.07812,0 1.70312,-0.54688 0.46875,-0.42187 0.46875,-1.42187 0,-0.92188 -0.46875,-1.34375 -0.45312,-0.4375 -1.59375,-0.4375 -0.60937,0 -0.76562,0.14062 -0.15625,0.125 -0.15625,0.59375 z m 13.596,2.26562 h -4.26562 q 0.0156,1.28125 0.51562,1.89063 0.5,0.60937 1.28125,0.60937 0.5625,0 1.0625,-0.3125 0.5,-0.3125 1.01563,-1.14062 l 0.48437,0.29687 q -0.5625,0.96875 -1.28125,1.39063 -0.70312,0.42187 -1.73437,0.42187 -1.48438,0 -2.42188,-0.90625 -0.92187,-0.92187 -0.92187,-2.34375 0,-1.42187 0.92187,-2.375 0.9375,-0.96875 2.29688,-0.96875 0.9375,0 1.60937,0.39063 0.67188,0.39062 1.04688,1.125 0.375,0.73437 0.39062,1.92187 z m -4.26562,-0.59375 h 2.03125 q 0.28125,0 0.40625,-0.14062 0.125,-0.14063 0.125,-0.51563 0,-0.76562 -0.34375,-1.17187 -0.34375,-0.42188 -0.875,-0.42188 -0.625,0 -0.96875,0.5625 -0.32813,0.5625 -0.375,1.6875 z m 5.26263,-2.5 h 3.64063 v 0.57813 h -0.29688 q -0.35937,0 -0.5,0.0937 -0.125,0.0937 -0.125,0.26562 0,0.17188 0.14063,0.4375 l 1.5625,2.89063 1.35937,-2.70313 q 0.10938,-0.20312 0.10938,-0.40625 0,-0.54687 -0.92188,-0.57812 v -0.57813 h 2.65625 v 0.57813 q -0.35937,0.0469 -0.5625,0.1875 -0.1875,0.125 -0.34375,0.42187 l -2.5625,5.125 h -0.46875 l -2.79687,-5.17187 q -0.20313,-0.34375 -0.34375,-0.45313 -0.14063,-0.10937 -0.39063,-0.10937 h -0.15625 z m 10.28198,-3.51562 q 0.42188,0 0.73438,0.3125 0.3125,0.3125 0.3125,0.75 0,0.4375 -0.3125,0.75 -0.3125,0.3125 -0.73438,0.3125 -0.45312,0 -0.76562,-0.3125 -0.3125,-0.3125 -0.3125,-0.75 0,-0.4375 0.3125,-0.75 0.3125,-0.3125 0.76562,-0.3125 z m -1.6875,3.51562 2.71875,-0.125 v 5.17188 q 0,0.21875 0.125,0.32812 0.14063,0.10938 0.40625,0.10938 h 0.42188 v 0.60937 h -3.67188 v -0.60937 h 0.40625 q 0.32813,0 0.45313,-0.14063 0.14062,-0.15625 0.14062,-0.53125 v -3.51562 q 0,-0.34375 -0.1875,-0.51563 -0.1875,-0.1875 -0.53125,-0.1875 h -0.28125 z m 11.13611,3.09375 h -4.26562 q 0.0156,1.28125 0.51562,1.89063 0.5,0.60937 1.28125,0.60937 0.5625,0 1.0625,-0.3125 0.5,-0.3125 1.01563,-1.14062 l 0.48437,0.29687 q -0.5625,0.96875 -1.28125,1.39063 -0.70312,0.42187 -1.73437,0.42187 -1.48438,0 -2.42188,-0.90625 -0.92187,-0.92187 -0.92187,-2.34375 0,-1.42187 0.92187,-2.375 0.9375,-0.96875 2.29688,-0.96875 0.9375,0 1.60937,0.39063 0.67188,0.39062 1.04688,1.125 0.375,0.73437 0.39062,1.92187 z m -4.26562,-0.59375 h 2.03125 q 0.28125,0 0.40625,-0.14062 0.125,-0.14063 0.125,-0.51563 0,-0.76562 -0.34375,-1.17187 -0.34375,-0.42188 -0.875,-0.42188 -0.625,0 -0.96875,0.5625 -0.32813,0.5625 -0.375,1.6875 z m 5.65326,-2.5 h 3.14062 v 0.57813 h -0.1875 q -0.29687,0 -0.40625,0.0781 -0.10937,0.0781 -0.10937,0.21875 0,0.0781 0.0469,0.1875 l 1.26563,2.8125 1.10937,-2.625 q -0.26562,-0.5 -0.42187,-0.57812 -0.15625,-0.0937 -0.54688,-0.0937 v -0.57813 h 3.42188 v 0.57813 h -0.20313 q -0.3125,0 -0.4375,0.0937 -0.10937,0.0781 -0.10937,0.21875 0,0.17187 0.0937,0.35937 l 1.20312,2.625 1.03125,-2.54687 q 0.0469,-0.10938 0.0469,-0.23438 0,-0.23437 -0.14063,-0.375 -0.125,-0.14062 -0.34375,-0.14062 h -0.25 v -0.57813 h 2.42188 v 0.57813 q -0.75,0.0469 -1.0625,0.82812 l -1.96875,4.89063 h -0.48438 l -1.89062,-4.20313 -1.70313,4.20313 h -0.5 l -2.32812,-5.23438 q -0.125,-0.28125 -0.26563,-0.375 -0.125,-0.0937 -0.42187,-0.10937 z"
       id="path37"
       inkscape:connector-curvature="0"
       style="fill:#000000;fill-rule:nonzero" />
    <path
       d="m 263.60764,360.11594 h 8.42187 l 0.20313,3.65625 h -0.59375 q -0.20313,-1.17187 -0.53125,-1.82812 -0.32813,-0.65625 -0.76563,-0.92188 -0.42187,-0.28125 -0.92187,-0.28125 -0.29688,0 -0.4375,0.125 -0.14063,0.10938 -0.14063,0.34375 v 7.4375 q 0,0.21875 0.125,0.35938 0.14063,0.125 0.34375,0.125 h 1.07813 v 0.60937 h -5.14063 v -0.60937 h 1.04688 q 0.23437,0 0.35937,-0.125 0.14063,-0.14063 0.14063,-0.35938 v -7.40625 q 0,-0.26562 -0.14063,-0.375 -0.14062,-0.125 -0.4375,-0.125 -1.65625,0 -2.25,3.03125 h -0.5625 z m 15.9064,6.625 h -4.26562 q 0.0156,1.28125 0.51562,1.89063 0.5,0.60937 1.28125,0.60937 0.5625,0 1.0625,-0.3125 0.5,-0.3125 1.01563,-1.14062 l 0.48437,0.29687 q -0.5625,0.96875 -1.28125,1.39063 -0.70312,0.42187 -1.73437,0.42187 -1.48438,0 -2.42188,-0.90625 -0.92187,-0.92187 -0.92187,-2.34375 0,-1.42187 0.92187,-2.375 0.9375,-0.96875 2.29688,-0.96875 0.9375,0 1.60937,0.39063 0.67188,0.39062 1.04688,1.125 0.375,0.73437 0.39062,1.92187 z m -4.26562,-0.59375 h 2.03125 q 0.28125,0 0.40625,-0.14062 0.125,-0.14063 0.125,-0.51563 0,-0.76562 -0.34375,-1.17187 -0.34375,-0.42188 -0.875,-0.42188 -0.625,0 -0.96875,0.5625 -0.32813,0.5625 -0.375,1.6875 z m 5.49701,-2.5 h 3.60937 v 0.5625 h -0.26562 q -0.23438,0 -0.32813,0.0625 -0.0937,0.0625 -0.0937,0.17188 0,0.0937 0.0625,0.17187 l 0.95313,1.20313 0.79687,-0.84375 q 0.21875,-0.21875 0.21875,-0.40625 0,-0.15625 -0.125,-0.25 -0.17187,-0.10938 -0.51562,-0.10938 h -0.125 v -0.5625 h 2.79687 v 0.5625 q -0.42187,0.0312 -0.6875,0.15625 -0.25,0.125 -0.57812,0.48438 l -1.40625,1.4375 1.85937,2.34375 q 0.25,0.3125 0.53125,0.4375 0.1875,0.0625 0.59375,0.0625 v 0.60937 h -3.85937 v -0.60937 h 0.35937 q 0.23438,0 0.32813,-0.0625 0.0937,-0.0625 0.0937,-0.14063 0,-0.0937 -0.0937,-0.21875 l -0.98438,-1.26562 -0.92187,0.95312 q -0.14063,0.14063 -0.14063,0.3125 0,0.1875 0.14063,0.3125 0.14062,0.10938 0.35937,0.10938 h 0.29688 v 0.60937 h -2.9375 v -0.60937 h 0.23437 q 0.51563,0 1.04688,-0.54688 l 1.5625,-1.59375 -1.79688,-2.23437 q -0.28125,-0.35938 -0.4375,-0.4375 -0.15625,-0.0937 -0.54687,-0.10938 z m 10.14135,-2.5 h 0.59375 v 2.5 h 2 v 0.70313 h -2 v 3.875 q 0,0.39062 0.1875,0.60937 0.20313,0.20313 0.51563,0.20313 0.90625,0 0.96875,-1.70313 h 0.57812 q -0.0156,0.90625 -0.28125,1.45313 -0.26562,0.54687 -0.76562,0.84375 -0.5,0.29687 -1.125,0.29687 -0.54688,0 -0.95313,-0.21875 -0.39062,-0.21875 -0.64062,-0.65625 -0.23438,-0.4375 -0.23438,-0.95312 v -3.75 h -1.07812 v -0.59375 q 1,-0.14063 1.54687,-0.76563 0.54688,-0.625 0.6875,-1.84375 z"
       id="path39"
       inkscape:connector-curvature="0"
       style="fill:#000000;fill-rule:nonzero" />
    <path
       d="m 568.59845,319.65942 h 80.06097 v 60.44193 c -40.02832,0 -40.02832,23.25497 -80.06097,11.6275 z m 6.59601,0 v -7.83591 h 79.51422 v 60.82108 c -3.02246,0 -6.04926,0.42126 -6.04926,0.42126 v -53.40643 z m 6.19995,-7.83591 v -7.64636 h 80.20306 v 60.6315 c -3.44439,0 -6.88879,0.31598 -6.88879,0.31598 v -53.30112 z"
       id="path41"
       inkscape:connector-curvature="0"
       style="fill:#cfe2f3;fill-rule:evenodd" />
    <path
       d="m 568.59845,319.65942 h 80.06097 v 60.44193 c -40.02832,0 -40.02832,23.25497 -80.06097,11.6275 z m 6.59601,0 v -7.83591 h 79.51422 v 60.82108 c -3.02246,0 -6.04926,0.42126 -6.04926,0.42126 m -67.26501,-61.24234 v -7.64636 h 80.20306 v 60.6315 c -3.4444,0 -6.88879,0.31598 -6.88879,0.31598"
       id="path43"
       inkscape:connector-curvature="0"
       style="fill:#000000;fill-opacity:0;fill-rule:evenodd" />
    <path
       d="m 568.59845,391.72885 c 40.03265,11.62747 40.03265,-11.6275 80.06097,-11.6275 v -7.03549 c 0,0 3.0268,-0.42127 6.04926,-0.42127 v -7.51996 c 0,0 3.4444,-0.31598 6.88879,-0.31598 v -60.6315 h -80.20306 v 7.64637 h -6.19995 v 7.8359 h -6.59601 z"
       id="path45"
       inkscape:connector-curvature="0"
       style="fill:#000000;fill-opacity:0;fill-rule:evenodd" />
    <path
       d="m 568.59845,319.65942 h 80.06097 v 60.44193 c -40.02832,0 -40.02832,23.25497 -80.06097,11.6275 z m 6.59601,0 v -7.83591 h 79.51422 v 60.82108 c -3.02246,0 -6.04926,0.42126 -6.04926,0.42126 m -67.26501,-61.24234 v -7.64636 h 80.20306 v 60.6315 c -3.4444,0 -6.88879,0.31598 -6.88879,0.31598"
       id="path47"
       inkscape:connector-curvature="0"
       style="fill-rule:evenodd;stroke:#000000;stroke-width:1;stroke-linecap:butt;stroke-linejoin:round" />
    <path
       d="m 568.59845,352.437 h 78.99213 v 9.00787 h -78.99213 z"
       id="path49"
       inkscape:connector-curvature="0"
       style="fill:#cfe2f3;fill-rule:evenodd" />
    <path
       d="m 568.59845,352.437 h 78.99213 v 9.00787 h -78.99213 z"
       id="path51"
       inkscape:connector-curvature="0"
       style="fill-rule:evenodd;stroke:#000000;stroke-width:1;stroke-linecap:butt;stroke-linejoin:round" />
    <path
       d="m 578.53595,359.62094 v -0.79687 h 0.79687 v 0.79687 z m 2.67187,0 v -0.79687 h 0.79688 v 0.79687 z m 2.65625,0 v -0.79687 h 0.8125 v 0.79687 z m 2.67188,0 v -0.79687 h 0.79687 v 0.79687 z m 2.67187,0 v -0.79687 h 0.79688 v 0.79687 z m 2.65625,0 v -0.79687 h 0.8125 v 0.79687 z m 2.67188,0 v -0.79687 h 0.79687 v 0.79687 z m 2.67187,0 v -0.79687 h 0.79688 v 0.79687 z m 2.65625,0 v -0.79687 h 0.8125 v 0.79687 z m 2.67188,0 v -0.79687 h 0.79687 v 0.79687 z m 2.67187,0 v -0.79687 h 0.79688 v 0.79687 z m 2.65625,0 v -0.79687 h 0.8125 v 0.79687 z m 2.67188,0 v -0.79687 h 0.79687 v 0.79687 z m 2.67187,0 v -0.79687 h 0.79688 v 0.79687 z m 2.65625,0 v -0.79687 h 0.8125 v 0.79687 z m 2.67188,0 v -0.79687 h 0.79687 v 0.79687 z m 2.67187,0 v -0.79687 h 0.79688 v 0.79687 z m 2.65625,0 v -0.79687 h 0.8125 v 0.79687 z m 2.67188,0 v -0.79687 h 0.79687 v 0.79687 z m 2.67187,0 v -0.79687 h 0.79688 v 0.79687 z m 2.65625,0 v -0.79687 h 0.8125 v 0.79687 z m 2.46875,0 v -0.79687 h 0.79688 v 0.79687 z"
       id="path53"
       inkscape:connector-curvature="0"
       style="fill:#000000;fill-rule:nonzero" />
    <path
       d="m 505.09842,431.30316 h 220.00003 v 17.00787 H 505.09842 Z"
       id="path55"
       inkscape:connector-curvature="0"
       style="fill:#cfe2f3;fill-rule:evenodd" />
    <path
       d="m 505.09842,431.30316 h 220.00003 v 17.00787 H 505.09842 Z"
       id="path57"
       inkscape:connector-curvature="0"
       style="fill-rule:evenodd;stroke:#000000;stroke-width:1;stroke-linecap:butt;stroke-linejoin:round" />
    <path
       d="m 517.8172,435.40396 q 1.26562,0 2.125,1 1.04687,1.21875 1.04687,3.6875 0,2.29687 -0.92187,3.5 -0.90625,1.20312 -2.1875,1.20312 -1.25,0 -2.07813,-1.01562 -1.04687,-1.26563 -1.04687,-3.65625 0,-2.28125 0.98437,-3.625 0.78125,-1.09375 2.07813,-1.09375 z m 0.0469,0.46875 q -0.85937,0 -1.34375,0.82812 -0.48437,0.82813 -0.48437,3.42188 0,2.53125 0.5,3.375 0.5,0.84375 1.34375,0.84375 0.84375,0 1.29687,-0.78125 0.53125,-0.9375 0.53125,-3.39063 0,-2.5625 -0.51562,-3.42187 -0.5,-0.875 -1.32813,-0.875 z m 5.50623,7.3125 q 0.32813,0 0.54688,0.23437 0.23437,0.23438 0.23437,0.5625 0,0.34375 -0.23437,0.57813 -0.21875,0.23437 -0.5625,0.23437 -0.32813,0 -0.5625,-0.23437 -0.21875,-0.23438 -0.21875,-0.57813 0,-0.32812 0.21875,-0.5625 0.23437,-0.23437 0.57812,-0.23437 z m 6.35919,-7.60938 v 8.125 q 0,0.1875 0.14063,0.28125 0.1875,0.14063 0.45312,0.14063 h 1.26563 v 0.48437 h -4.67188 v -0.48437 h 1.07813 q 0.34375,0 0.5,-0.15625 0.15625,-0.17188 0.15625,-0.4375 v -6.125 q 0,-0.20313 -0.15625,-0.32813 -0.14063,-0.125 -0.375,-0.125 h -1.4375 v -0.45312 q 1.01562,-0.125 1.64062,-0.34375 0.625,-0.21875 1.10938,-0.57813 z"
       id="path59"
       inkscape:connector-curvature="0"
       style="fill:#000000;fill-rule:nonzero" />
    <path
       d="m 565.8172,435.40396 q 1.26562,0 2.125,1 1.04687,1.21875 1.04687,3.6875 0,2.29687 -0.92187,3.5 -0.90625,1.20312 -2.1875,1.20312 -1.25,0 -2.07813,-1.01562 -1.04687,-1.26563 -1.04687,-3.65625 0,-2.28125 0.98437,-3.625 0.78125,-1.09375 2.07813,-1.09375 z m 0.0469,0.46875 q -0.85937,0 -1.34375,0.82812 -0.48437,0.82813 -0.48437,3.42188 0,2.53125 0.5,3.375 0.5,0.84375 1.34375,0.84375 0.84375,0 1.29687,-0.78125 0.53125,-0.9375 0.53125,-3.39063 0,-2.5625 -0.51562,-3.42187 -0.5,-0.875 -1.32813,-0.875 z m 5.50623,7.3125 q 0.32813,0 0.54688,0.23437 0.23437,0.23438 0.23437,0.5625 0,0.34375 -0.23437,0.57813 -0.21875,0.23437 -0.5625,0.23437 -0.32813,0 -0.5625,-0.23437 -0.21875,-0.23438 -0.21875,-0.57813 0,-0.32812 0.21875,-0.5625 0.23437,-0.23437 0.57812,-0.23437 z m 3.96857,-2.84375 q 0.5,-0.6875 1.0625,-0.96875 0.5625,-0.29688 1.23437,-0.29688 1.07813,0 1.8125,0.73438 0.73438,0.73437 0.73438,1.84375 0,1.35937 -0.875,2.25 -0.85938,0.89062 -2.14063,0.89062 -0.89062,0 -1.59375,-0.48437 -0.70312,-0.48438 -1.15625,-1.5 -0.4375,-1.01563 -0.4375,-2.35938 0,-1.46875 0.54688,-2.65625 0.54687,-1.1875 1.39062,-1.78125 0.84375,-0.60937 1.78125,-0.60937 0.9375,0 1.60938,0.53125 0.54687,0.42187 0.54687,1.01562 0,0.39063 -0.25,0.65625 -0.23437,0.25 -0.57812,0.25 -0.32813,0 -0.5625,-0.21875 -0.23438,-0.21875 -0.23438,-0.51562 0,-0.1875 0.15625,-0.4375 0.14063,-0.21875 0.14063,-0.35938 0,-0.17187 -0.17188,-0.29687 -0.23437,-0.15625 -0.64062,-0.15625 -0.64063,0 -1.15625,0.40625 -0.51563,0.39062 -0.875,1.35937 -0.35938,0.96875 -0.35938,2.17188 0,0.17187 0.0156,0.53125 z m 1.9375,-0.625 q -0.8125,0 -1.32813,0.59375 -0.51562,0.57812 -0.51562,1.64062 0,1.17188 0.5,1.78125 0.5,0.60938 1.26562,0.60938 0.76563,0 1.23438,-0.57813 0.46875,-0.57812 0.46875,-1.73437 0,-1.21875 -0.4375,-1.76563 -0.42188,-0.54687 -1.1875,-0.54687 z"
       id="path61"
       inkscape:connector-curvature="0"
       style="fill:#000000;fill-rule:nonzero" />
    <path
       d="m 613.8172,435.40396 q 1.26562,0 2.125,1 1.04687,1.21875 1.04687,3.6875 0,2.29687 -0.92187,3.5 -0.90625,1.20312 -2.1875,1.20312 -1.25,0 -2.07813,-1.01562 -1.04687,-1.26563 -1.04687,-3.65625 0,-2.28125 0.98437,-3.625 0.78125,-1.09375 2.07813,-1.09375 z m 0.0469,0.46875 q -0.85937,0 -1.34375,0.82812 -0.48437,0.82813 -0.48437,3.42188 0,2.53125 0.5,3.375 0.5,0.84375 1.34375,0.84375 0.84375,0 1.29687,-0.78125 0.53125,-0.9375 0.53125,-3.39063 0,-2.5625 -0.51562,-3.42187 -0.5,-0.875 -1.32813,-0.875 z m 5.50623,7.3125 q 0.32813,0 0.54688,0.23437 0.23437,0.23438 0.23437,0.5625 0,0.34375 -0.23437,0.57813 -0.21875,0.23437 -0.5625,0.23437 -0.32813,0 -0.5625,-0.23437 -0.21875,-0.23438 -0.21875,-0.57813 0,-0.32812 0.21875,-0.5625 0.23437,-0.23437 0.57812,-0.23437 z m 3.32794,-7.76563 q 0.625,0.15625 1.375,0.15625 h 4.04688 v 0.29688 q -0.89063,1.57812 -1.34375,2.67187 -0.4375,1.07813 -0.67188,2.0625 -0.21875,0.98438 -0.29687,2.29688 -0.0625,1.09375 -0.125,1.35937 -0.0469,0.25 -0.23438,0.39063 -0.17187,0.14062 -0.45312,0.14062 -0.32813,0 -0.51563,-0.21875 -0.1875,-0.23437 -0.1875,-0.70312 0,-0.42188 0.15625,-1.04688 0.15625,-0.64062 0.6875,-1.90625 0.70313,-1.6875 1.21875,-2.67187 l 0.90625,-1.64063 h -3.53125 q -0.39062,0 -0.57812,0.28125 -0.1875,0.26563 -0.45313,1.625 h -0.46875 z m 30.36481,7.54688 q 0.375,0 0.64062,0.26562 0.26563,0.26563 0.26563,0.64063 0,0.375 -0.28125,0.65625 -0.26563,0.26562 -0.64063,0.26562 -0.34375,0 -0.60937,-0.26562 -0.26563,-0.28125 -0.26563,-0.65625 0,-0.375 0.25,-0.64063 0.26563,-0.26562 0.64063,-0.26562 z m 4.45312,0 q 0.375,0 0.64063,0.26562 0.26562,0.26563 0.26562,0.64063 0,0.375 -0.28125,0.65625 -0.26562,0.26562 -0.64062,0.26562 -0.35938,0 -0.625,-0.26562 -0.26563,-0.28125 -0.26563,-0.65625 0,-0.375 0.26563,-0.64063 0.26562,-0.26562 0.64062,-0.26562 z m 4.4375,0.0312 q 0.375,0 0.625,0.26562 0.26563,0.25 0.26563,0.625 0,0.375 -0.26563,0.64063 -0.25,0.26562 -0.625,0.26562 -0.375,0 -0.64062,-0.26562 -0.25,-0.26563 -0.25,-0.64063 0,-0.375 0.25,-0.625 0.26562,-0.26562 0.64062,-0.26562 z m 28.1554,-7.59375 q 1.26563,0 2.125,1 1.04688,1.21875 1.04688,3.6875 0,2.29687 -0.92188,3.5 -0.90625,1.20312 -2.1875,1.20312 -1.25,0 -2.07812,-1.01562 -1.04688,-1.26563 -1.04688,-3.65625 0,-2.28125 0.98438,-3.625 0.78125,-1.09375 2.07812,-1.09375 z m 0.0469,0.46875 q -0.85938,0 -1.34375,0.82812 -0.48438,0.82813 -0.48438,3.42188 0,2.53125 0.5,3.375 0.5,0.84375 1.34375,0.84375 0.84375,0 1.29688,-0.78125 0.53125,-0.9375 0.53125,-3.39063 0,-2.5625 -0.51563,-3.42187 -0.5,-0.875 -1.32812,-0.875 z m 5.50622,7.3125 q 0.32813,0 0.54688,0.23437 0.23437,0.23438 0.23437,0.5625 0,0.34375 -0.23437,0.57813 -0.21875,0.23437 -0.5625,0.23437 -0.32813,0 -0.5625,-0.23437 -0.21875,-0.23438 -0.21875,-0.57813 0,-0.32812 0.21875,-0.5625 0.23437,-0.23437 0.57812,-0.23437 z m 3.6405,-7.78125 q 1.65625,0.39062 2.6875,0.39062 0.5,0 0.92188,-0.0937 0.4375,-0.0937 0.64062,-0.21875 0.10938,-0.0625 0.15625,-0.0625 0.0625,0 0.0625,0.0937 0,0.23438 -0.29687,0.60938 -0.29688,0.375 -0.79688,0.59375 -0.5,0.21875 -1.15625,0.21875 -0.76562,0 -1.82812,-0.23438 l -0.20313,2.48438 q 0.48438,-0.25 0.9375,-0.375 0.45313,-0.125 0.85938,-0.125 1.26562,0 2.125,0.85937 0.875,0.84375 0.875,2.07813 0,1.39062 -0.92188,2.28125 -0.92187,0.89062 -2.39062,0.89062 -1.125,0 -1.82813,-0.64062 -0.70312,-0.64063 -0.70312,-1.53125 0,-0.53125 0.21875,-0.8125 0.21875,-0.29688 0.57812,-0.29688 0.34375,0 0.5625,0.23438 0.21875,0.21875 0.21875,0.59375 0,0.28125 -0.10937,0.4375 -0.10938,0.15625 -0.39063,0.26562 -0.29687,0.10938 -0.29687,0.25 0,0.20313 0.1875,0.45313 0.20312,0.25 0.59375,0.42187 0.40625,0.15625 0.90625,0.15625 1,0 1.51562,-0.60937 0.53125,-0.625 0.53125,-2.03125 0,-1.26563 -0.5625,-1.84375 -0.54687,-0.59375 -1.40625,-0.59375 -0.39062,0 -0.78125,0.15625 -0.39062,0.14062 -0.78125,0.42187 -0.0469,0.45313 -0.17187,0.60938 -0.10938,0.15625 -0.28125,0.15625 -0.14063,0 -0.21875,-0.0937 -0.0781,-0.0937 -0.0781,-0.25 0,-0.29688 0.26563,-0.57813 0.0781,-0.0781 0.125,-0.14062 l 0.14062,-1.92188 q 0.0937,-1.125 0.0937,-2.20312 z"
       id="path63"
       inkscape:connector-curvature="0"
       style="fill:#000000;fill-rule:nonzero" />
    <path
       d="M 568.59845,356.94095 505.10236,439.8071"
       id="path65"
       inkscape:connector-curvature="0"
       style="fill:#000000;fill-opacity:0;fill-rule:evenodd" />
    <path
       d="M 568.59845,356.94095 505.10236,439.8071"
       id="path67"
       inkscape:connector-curvature="0"
       style="fill-rule:evenodd;stroke:#000000;stroke-width:1;stroke-linecap:butt;stroke-linejoin:round;stroke-dasharray:1, 3" />
    <path
       d="m 647.5906,356.94095 77.51178,82.86615"
       id="path69"
       inkscape:connector-curvature="0"
       style="fill:#000000;fill-opacity:0;fill-rule:evenodd" />
    <path
       d="m 647.5906,356.94095 77.51178,82.86615"
       id="path71"
       inkscape:connector-curvature="0"
       style="fill-rule:evenodd;stroke:#000000;stroke-width:1;stroke-linecap:butt;stroke-linejoin:round;stroke-dasharray:1, 3" />
    <path
       d="m 320.62466,356.94095 h 90.74017"
       id="path73"
       inkscape:connector-curvature="0"
       style="fill:#000000;fill-opacity:0;fill-rule:evenodd" />
    <path
       d="m 320.62466,356.94095 h 84.74017"
       id="path75"
       inkscape:connector-curvature="0"
       style="fill-rule:evenodd;stroke:#000000;stroke-width:1;stroke-linecap:butt;stroke-linejoin:round" />
    <path
       d="m 405.36484,358.59268 4.53809,-1.65173 -4.53809,-1.65174 z"
       id="path77"
       inkscape:connector-curvature="0"
       style="fill:#000000;fill-rule:evenodd;stroke:#000000;stroke-width:1;stroke-linecap:butt" />
    <path
       d="m 320.62466,323.33466 h 133.00787 v 67.21258 H 320.62466 Z"
       id="path79"
       inkscape:connector-curvature="0"
       style="fill:#000000;fill-opacity:0;fill-rule:evenodd" />
    <path
       d="m 330.1559,335.18277 h 7.03125 l 0.17187,3.28125 h -0.40625 q -0.40625,-2.89063 -2.09375,-2.89063 -0.32812,0 -0.46875,0.125 -0.125,0.10938 -0.125,0.375 v 6.9375 q 0,0.20313 0.125,0.3125 0.125,0.0937 0.40625,0.0937 h 0.875 v 0.4375 h -4.03125 v -0.4375 h 1 q 0.20313,0 0.29688,-0.0937 0.10937,-0.10937 0.10937,-0.26562 v -7.03125 q 0,-0.21875 -0.14062,-0.32813 -0.125,-0.125 -0.42188,-0.125 -0.84375,0 -1.42187,0.79688 -0.46875,0.67187 -0.67188,2.09375 h -0.42187 z m 10.45703,3.01562 q 1.10938,0 1.85938,0.79688 0.75,0.79687 0.75,2.10937 0,0.90625 -0.34375,1.54688 -0.32813,0.625 -0.95313,1 -0.625,0.375 -1.34375,0.375 -1.0625,0 -1.8125,-0.8125 -0.73437,-0.8125 -0.73437,-2.10938 0,-1.28125 0.73437,-2.09375 0.75,-0.8125 1.84375,-0.8125 z m 0,0.42188 q -0.65625,0 -1.07812,0.59375 -0.42188,0.59375 -0.42188,1.875 0,1.3125 0.42188,1.92187 0.42187,0.59375 1.07812,0.59375 0.6875,0 1.10938,-0.59375 0.42187,-0.60937 0.42187,-1.98437 0,-1.28125 -0.42187,-1.84375 -0.40625,-0.5625 -1.10938,-0.5625 z m 3.3125,-3.4375 2.09375,-0.0937 v 6 l 1.79688,-1.5625 q 0.25,-0.21875 0.25,-0.39063 0,-0.15625 -0.14063,-0.23437 -0.23437,-0.10938 -0.75,-0.125 v -0.40625 h 2.92188 v 0.40625 q -0.85938,0.0469 -1.32813,0.45312 l -1.25,1.125 2.04688,2.8125 q 0.1875,0.25 0.64062,0.25 h 0.3125 v 0.4375 h -3 v -0.4375 h 0.29688 q 0.32812,0 0.4375,-0.0625 0.125,-0.0625 0.125,-0.14062 0,-0.0781 -0.0625,-0.15625 l -1.48438,-2.09375 -0.8125,0.70312 v 1.39063 q 0,0.15625 0.125,0.25 0.15625,0.10937 0.4375,0.10937 h 0.375 v 0.4375 h -2.95312 v -0.4375 h 0.48437 q 0.29688,0 0.4375,-0.125 0.14063,-0.125 0.14063,-0.32812 v -6.78125 q 0,-0.25 -0.17188,-0.375 -0.25,-0.1875 -0.67187,-0.1875 h -0.29688 z m 12.36328,5.96875 h -3.9375 q 0.0312,1.25 0.46875,1.76562 0.5,0.57813 1.28125,0.57813 1.15625,0 1.84375,-1.3125 l 0.39063,0.17187 q -0.85938,1.67188 -2.46875,1.67188 -1.10938,0 -1.85938,-0.79688 -0.75,-0.8125 -0.75,-2.04687 0,-1.34375 0.73438,-2.15625 0.75,-0.82813 1.82812,-0.82813 0.79688,0 1.375,0.42188 0.57813,0.40625 0.875,1.17187 0.20313,0.53125 0.21875,1.35938 z m -3.9375,-0.42188 h 2.375 q 0.21875,0 0.32813,-0.14062 0.125,-0.14063 0.125,-0.48438 0,-0.65625 -0.40625,-1.09375 -0.39063,-0.45312 -0.9375,-0.45312 -0.60938,0 -1.04688,0.54687 -0.42187,0.53125 -0.4375,1.625 z m 4.78125,-2.35937 1.82813,-0.125 q 0.10937,0.51562 0.15625,1.21875 0.375,-0.60938 0.875,-0.90625 0.5,-0.29688 1.14062,-0.29688 0.53125,0 0.90625,0.21875 0.375,0.21875 0.59375,0.6875 0.21875,0.45313 0.21875,1.03125 v 2.67188 q 0,0.29687 0.125,0.42187 0.14063,0.125 0.46875,0.125 h 0.375 v 0.4375 h -2.89062 v -0.4375 h 0.28125 q 0.39062,0 0.53125,-0.125 0.15625,-0.125 0.15625,-0.375 v -2.34375 q 0,-0.76562 -0.23438,-1.14062 -0.32812,-0.53125 -1,-0.53125 -0.65625,0 -1.10937,0.54687 -0.4375,0.53125 -0.4375,1.375 v 2.04688 q 0,0.29687 0.14062,0.42187 0.14063,0.125 0.45313,0.125 h 0.39062 v 0.4375 h -2.90625 v -0.4375 h 0.375 q 0.28125,0 0.42188,-0.10937 0.15625,-0.125 0.15625,-0.29688 v -3.54687 q 0,-0.35938 -0.1875,-0.53125 -0.1875,-0.1875 -0.54688,-0.1875 h -0.28125 z m 8.75196,-3.28125 q 0.25,0 0.45312,0.20312 0.20313,0.1875 0.20313,0.46875 0,0.26563 -0.20313,0.45313 -0.1875,0.1875 -0.45312,0.1875 -0.26563,0 -0.46875,-0.1875 -0.1875,-0.20313 -0.1875,-0.46875 0,-0.26563 0.1875,-0.45313 0.20312,-0.20312 0.46875,-0.20312 z m -1.53125,3.28125 2.1875,-0.0781 v 4.73438 q 0,0.1875 0.0937,0.26562 0.14062,0.125 0.34375,0.125 h 0.60937 v 0.4375 h -3.10937 v -0.4375 h 0.57812 q 0.26563,0 0.375,-0.125 0.125,-0.125 0.125,-0.375 v -3.45312 q 0,-0.32813 -0.1875,-0.48438 -0.1875,-0.17187 -0.5625,-0.17187 h -0.45312 z m 4.54492,3.42187 q 0.35937,1 0.82812,1.39063 0.48438,0.39062 1.17188,0.39062 0.64062,0 0.98437,-0.26562 0.34375,-0.28125 0.34375,-0.71875 0,-0.23438 -0.125,-0.42188 -0.125,-0.1875 -0.35937,-0.28125 -0.21875,-0.0937 -1.14063,-0.26562 -0.89062,-0.17188 -1.25,-0.35938 -0.34375,-0.20312 -0.54687,-0.53125 -0.20313,-0.34375 -0.20313,-0.75 0,-0.60937 0.40625,-1.09375 0.53125,-0.625 1.46875,-0.625 0.70313,0 1.3125,0.45313 l 0.39063,-0.42188 h 0.25 l 0.14062,1.96875 h -0.39062 q -0.25,-0.84375 -0.70313,-1.20312 -0.4375,-0.35938 -1.07812,-0.35938 -0.54688,0 -0.875,0.26563 -0.3125,0.26562 -0.3125,0.67187 0,0.34375 0.29687,0.5625 0.28125,0.23438 1.125,0.375 0.96875,0.15625 1.26563,0.28125 0.48437,0.17188 0.73437,0.54688 0.26563,0.35937 0.26563,0.875 0,0.73437 -0.57813,1.25 -0.5625,0.5 -1.4375,0.5 -0.8125,0 -1.51562,-0.54688 l -0.42188,0.5 h -0.3125 l -0.125,-2.1875 z m 10.69531,1.45313 0.21875,0.32812 q -0.42188,0.45313 -0.95313,0.45313 -0.39062,0 -0.67187,-0.21875 -0.26563,-0.21875 -0.46875,-0.76563 -0.5625,0.57813 -0.98438,0.78125 -0.42187,0.20313 -1.01562,0.20313 -0.84375,0 -1.28125,-0.35938 -0.4375,-0.375 -0.4375,-0.9375 0,-0.85937 1,-1.42187 1.01562,-0.57813 2.67187,-0.76563 v -0.82812 q 0,-0.4375 -0.35937,-0.75 -0.34375,-0.32813 -0.90625,-0.32813 -0.5,0 -0.875,0.21875 -0.26563,0.15625 -0.26563,0.3125 0,0.0781 0.14063,0.26563 0.17187,0.23437 0.17187,0.42187 0,0.26563 -0.17187,0.4375 -0.17188,0.15625 -0.4375,0.15625 -0.29688,0 -0.5,-0.1875 -0.1875,-0.20312 -0.1875,-0.51562 0,-0.57813 0.65625,-1.0625 0.65625,-0.48438 1.70312,-0.48438 0.98438,0 1.5,0.42188 0.51563,0.42187 0.51563,1.03125 v 3 q 0,0.40625 0.125,0.59375 0.14062,0.1875 0.34375,0.1875 0.21875,0 0.46875,-0.1875 z m -1.92188,-2.3125 q -1.48437,0.20312 -2.10937,0.67187 -0.45313,0.34375 -0.45313,1 0,0.45313 0.23438,0.70313 0.25,0.25 0.625,0.25 0.70312,0 1.20312,-0.51563 0.5,-0.53125 0.5,-1.32812 z m 4.23633,-4.8125 h 0.40625 v 2.25 h 1.78125 v 0.53125 h -1.78125 v 3.51562 q 0,0.46875 0.21875,0.71875 0.21875,0.23438 0.54688,0.23438 0.40625,0 0.6875,-0.35938 0.28125,-0.375 0.32812,-1.23437 h 0.39063 q -0.0469,1.09375 -0.51563,1.625 -0.45312,0.53125 -1.1875,0.53125 -0.6875,0 -1.07812,-0.35938 -0.375,-0.375 -0.375,-0.98437 v -3.6875 h -0.95313 v -0.40625 q 0.65625,-0.10938 1,-0.54688 0.5,-0.65625 0.53125,-1.82812 z m 4.6543,-1.03125 q 0.25,0 0.45312,0.20312 0.20313,0.1875 0.20313,0.46875 0,0.26563 -0.20313,0.45313 -0.1875,0.1875 -0.45312,0.1875 -0.26563,0 -0.46875,-0.1875 -0.1875,-0.20313 -0.1875,-0.46875 0,-0.26563 0.1875,-0.45313 0.20312,-0.20312 0.46875,-0.20312 z m -1.53125,3.28125 2.1875,-0.0781 v 4.73438 q 0,0.1875 0.0937,0.26562 0.14062,0.125 0.34375,0.125 h 0.60937 v 0.4375 h -3.10937 v -0.4375 h 0.57812 q 0.26563,0 0.375,-0.125 0.125,-0.125 0.125,-0.375 v -3.45312 q 0,-0.32813 -0.1875,-0.48438 -0.1875,-0.17187 -0.5625,-0.17187 h -0.45312 z m 6.48242,-0.17188 q 1.10938,0 1.85938,0.79688 0.75,0.79687 0.75,2.10937 0,0.90625 -0.34375,1.54688 -0.32813,0.625 -0.95313,1 -0.625,0.375 -1.34375,0.375 -1.0625,0 -1.8125,-0.8125 -0.73437,-0.8125 -0.73437,-2.10938 0,-1.28125 0.73437,-2.09375 0.75,-0.8125 1.84375,-0.8125 z m 0,0.42188 q -0.65625,0 -1.07812,0.59375 -0.42188,0.59375 -0.42188,1.875 0,1.3125 0.42188,1.92187 0.42187,0.59375 1.07812,0.59375 0.6875,0 1.10938,-0.59375 0.42187,-0.60937 0.42187,-1.98437 0,-1.28125 -0.42187,-1.84375 -0.40625,-0.5625 -1.10938,-0.5625 z m 3.40625,-0.25 1.82813,-0.125 q 0.10937,0.51562 0.15625,1.21875 0.375,-0.60938 0.875,-0.90625 0.5,-0.29688 1.14062,-0.29688 0.53125,0 0.90625,0.21875 0.375,0.21875 0.59375,0.6875 0.21875,0.45313 0.21875,1.03125 v 2.67188 q 0,0.29687 0.125,0.42187 0.14063,0.125 0.46875,0.125 h 0.375 v 0.4375 h -2.89062 v -0.4375 h 0.28125 q 0.39062,0 0.53125,-0.125 0.15625,-0.125 0.15625,-0.375 v -2.34375 q 0,-0.76562 -0.23438,-1.14062 -0.32812,-0.53125 -1,-0.53125 -0.65625,0 -1.10937,0.54687 -0.4375,0.53125 -0.4375,1.375 v 2.04688 q 0,0.29687 0.14062,0.42187 0.14063,0.125 0.45313,0.125 h 0.39062 v 0.4375 h -2.90625 v -0.4375 h 0.375 q 0.28125,0 0.42188,-0.10937 0.15625,-0.125 0.15625,-0.29688 v -3.54687 q 0,-0.35938 -0.1875,-0.53125 -0.1875,-0.1875 -0.54688,-0.1875 h -0.28125 z"
       id="path81"
       inkscape:connector-curvature="0"
       style="fill:#000000;fill-rule:nonzero" />
    <path
       d="m 335.81216,371.24527 0.21875,0.32812 q -0.42188,0.45313 -0.95313,0.45313 -0.39062,0 -0.67187,-0.21875 -0.26563,-0.21875 -0.46875,-0.76563 -0.5625,0.57813 -0.98438,0.78125 -0.42187,0.20313 -1.01562,0.20313 -0.84375,0 -1.28125,-0.35938 -0.4375,-0.375 -0.4375,-0.9375 0,-0.85937 1,-1.42187 1.01562,-0.57813 2.67187,-0.76563 v -0.82812 q 0,-0.4375 -0.35937,-0.75 -0.34375,-0.32813 -0.90625,-0.32813 -0.5,0 -0.875,0.21875 -0.26563,0.15625 -0.26563,0.3125 0,0.0781 0.14063,0.26563 0.17187,0.23437 0.17187,0.42187 0,0.26563 -0.17187,0.4375 -0.17188,0.15625 -0.4375,0.15625 -0.29688,0 -0.5,-0.1875 -0.1875,-0.20312 -0.1875,-0.51562 0,-0.57813 0.65625,-1.0625 0.65625,-0.48438 1.70312,-0.48438 0.98438,0 1.5,0.42188 0.51563,0.42187 0.51563,1.03125 v 3 q 0,0.40625 0.125,0.59375 0.14062,0.1875 0.34375,0.1875 0.21875,0 0.46875,-0.1875 z m -1.92188,-2.3125 q -1.48437,0.20312 -2.10937,0.67187 -0.45313,0.34375 -0.45313,1 0,0.45313 0.23438,0.70313 0.25,0.25 0.625,0.25 0.70312,0 1.20312,-0.51563 0.5,-0.53125 0.5,-1.32812 z m 2.79883,-2.5625 1.82813,-0.125 q 0.10937,0.51562 0.15625,1.21875 0.375,-0.60938 0.875,-0.90625 0.5,-0.29688 1.14062,-0.29688 0.53125,0 0.90625,0.21875 0.375,0.21875 0.59375,0.6875 0.21875,0.45313 0.21875,1.03125 v 2.67188 q 0,0.29687 0.125,0.42187 0.14063,0.125 0.46875,0.125 h 0.375 v 0.4375 h -2.89062 v -0.4375 h 0.28125 q 0.39062,0 0.53125,-0.125 0.15625,-0.125 0.15625,-0.375 v -2.34375 q 0,-0.76562 -0.23438,-1.14062 -0.32812,-0.53125 -1,-0.53125 -0.65625,0 -1.10937,0.54687 -0.4375,0.53125 -0.4375,1.375 v 2.04688 q 0,0.29687 0.14062,0.42187 0.14063,0.125 0.45313,0.125 h 0.39062 v 0.4375 h -2.90625 v -0.4375 h 0.375 q 0.28125,0 0.42188,-0.10937 0.15625,-0.125 0.15625,-0.29688 v -3.54687 q 0,-0.35938 -0.1875,-0.53125 -0.1875,-0.1875 -0.54688,-0.1875 h -0.28125 z m 10.43946,-3.1875 2.15625,-0.0937 v 7.51562 q 0,0.4375 0.15625,0.625 0.17187,0.1875 0.5,0.1875 h 0.39062 v 0.4375 h -1.875 l -0.14062,-1.125 q -0.34375,0.60938 -0.79688,0.90625 -0.4375,0.29688 -1,0.29688 -0.9375,0 -1.59375,-0.78125 -0.65625,-0.78125 -0.65625,-2.07813 0,-1.39062 0.84375,-2.21875 0.65625,-0.65625 1.51563,-0.65625 0.53125,0 0.95312,0.26563 0.42188,0.26562 0.73438,0.79687 v -3.09375 q 0,-0.25 -0.20313,-0.39062 -0.1875,-0.15625 -0.59375,-0.15625 h -0.39062 z m -0.32813,3.5 q -0.64062,0 -1.01562,0.53125 -0.375,0.51562 -0.375,1.75 0,1.34375 0.375,1.89062 0.39062,0.54688 0.98437,0.54688 0.64063,0 1.09375,-0.60938 0.45313,-0.60937 0.45313,-1.79687 0,-1.10938 -0.48438,-1.75 -0.42187,-0.5625 -1.03125,-0.5625 z m 7.52149,-3.5 h 4.26562 q 1.45313,0 2.21875,0.65625 0.76563,0.65625 0.76563,1.71875 0,1.0625 -0.70313,1.625 -0.96875,0.76562 -2.39062,0.76562 h -1.54688 v 2.95313 q 0,0.26562 0.125,0.375 0.15625,0.14062 0.4375,0.14062 h 0.98438 v 0.4375 h -4.15625 v -0.4375 h 0.875 q 0.25,0 0.35937,-0.0937 0.125,-0.10937 0.125,-0.29687 v -6.90625 q 0,-0.26563 -0.15625,-0.375 -0.14062,-0.125 -0.5625,-0.125 h -0.64062 z m 2.60937,4.32812 h 1.17188 q 1.125,0 1.60937,-0.45312 0.5,-0.46875 0.5,-1.54688 0,-0.75 -0.21875,-1.14062 -0.21875,-0.40625 -0.65625,-0.59375 -0.42187,-0.20313 -1.40625,-0.20313 -0.65625,0 -0.82812,0.125 -0.17188,0.125 -0.17188,0.42188 z m 11.11328,3.73438 0.21875,0.32812 q -0.42187,0.45313 -0.95312,0.45313 -0.39063,0 -0.67188,-0.21875 -0.26562,-0.21875 -0.46875,-0.76563 -0.5625,0.57813 -0.98437,0.78125 -0.42188,0.20313 -1.01563,0.20313 -0.84375,0 -1.28125,-0.35938 -0.4375,-0.375 -0.4375,-0.9375 0,-0.85937 1,-1.42187 1.01563,-0.57813 2.67188,-0.76563 v -0.82812 q 0,-0.4375 -0.35938,-0.75 -0.34375,-0.32813 -0.90625,-0.32813 -0.5,0 -0.875,0.21875 -0.26562,0.15625 -0.26562,0.3125 0,0.0781 0.14062,0.26563 0.17188,0.23437 0.17188,0.42187 0,0.26563 -0.17188,0.4375 -0.17187,0.15625 -0.4375,0.15625 -0.29687,0 -0.5,-0.1875 -0.1875,-0.20312 -0.1875,-0.51562 0,-0.57813 0.65625,-1.0625 0.65625,-0.48438 1.70313,-0.48438 0.98437,0 1.5,0.42188 0.51562,0.42187 0.51562,1.03125 v 3 q 0,0.40625 0.125,0.59375 0.14063,0.1875 0.34375,0.1875 0.21875,0 0.46875,-0.1875 z m -1.92187,-2.3125 q -1.48438,0.20312 -2.10938,0.67187 -0.45312,0.34375 -0.45312,1 0,0.45313 0.23437,0.70313 0.25,0.25 0.625,0.25 0.70313,0 1.20313,-0.51563 0.5,-0.53125 0.5,-1.32812 z m 5.9082,-5.75 2.15625,-0.0937 v 7.51562 q 0,0.4375 0.15625,0.625 0.17187,0.1875 0.5,0.1875 h 0.39062 v 0.4375 h -1.875 l -0.14062,-1.125 q -0.34375,0.60938 -0.79688,0.90625 -0.4375,0.29688 -1,0.29688 -0.9375,0 -1.59375,-0.78125 -0.65625,-0.78125 -0.65625,-2.07813 0,-1.39062 0.84375,-2.21875 0.65625,-0.65625 1.51563,-0.65625 0.53125,0 0.95312,0.26563 0.42188,0.26562 0.73438,0.79687 v -3.09375 q 0,-0.25 -0.20313,-0.39062 -0.1875,-0.15625 -0.59375,-0.15625 h -0.39062 z m -0.32813,3.5 q -0.64062,0 -1.01562,0.53125 -0.375,0.51562 -0.375,1.75 0,1.34375 0.375,1.89062 0.39062,0.54688 0.98437,0.54688 0.64063,0 1.09375,-0.60938 0.45313,-0.60937 0.45313,-1.79687 0,-1.10938 -0.48438,-1.75 -0.42187,-0.5625 -1.03125,-0.5625 z m 7.21875,-3.5 2.15625,-0.0937 v 7.51562 q 0,0.4375 0.15625,0.625 0.17188,0.1875 0.5,0.1875 h 0.39063 v 0.4375 h -1.875 l -0.14063,-1.125 q -0.34375,0.60938 -0.79687,0.90625 -0.4375,0.29688 -1,0.29688 -0.9375,0 -1.59375,-0.78125 -0.65625,-0.78125 -0.65625,-2.07813 0,-1.39062 0.84375,-2.21875 0.65625,-0.65625 1.51562,-0.65625 0.53125,0 0.95313,0.26563 0.42187,0.26562 0.73437,0.79687 v -3.09375 q 0,-0.25 -0.20312,-0.39062 -0.1875,-0.15625 -0.59375,-0.15625 h -0.39063 z m -0.32812,3.5 q -0.64063,0 -1.01563,0.53125 -0.375,0.51562 -0.375,1.75 0,1.34375 0.375,1.89062 0.39063,0.54688 0.98438,0.54688 0.64062,0 1.09375,-0.60938 0.45312,-0.60937 0.45312,-1.79687 0,-1.10938 -0.48437,-1.75 -0.42188,-0.5625 -1.03125,-0.5625 z m 5.53125,-3.59375 q 0.25,0 0.45312,0.20312 0.20313,0.1875 0.20313,0.46875 0,0.26563 -0.20313,0.45313 -0.1875,0.1875 -0.45312,0.1875 -0.26563,0 -0.46875,-0.1875 -0.1875,-0.20313 -0.1875,-0.46875 0,-0.26563 0.1875,-0.45313 0.20312,-0.20312 0.46875,-0.20312 z m -1.53125,3.28125 2.1875,-0.0781 v 4.73438 q 0,0.1875 0.0937,0.26562 0.14062,0.125 0.34375,0.125 h 0.60937 v 0.4375 h -3.10937 v -0.4375 h 0.57812 q 0.26563,0 0.375,-0.125 0.125,-0.125 0.125,-0.375 v -3.45312 q 0,-0.32813 -0.1875,-0.48438 -0.1875,-0.17187 -0.5625,-0.17187 h -0.45312 z m 3.88867,0 1.82813,-0.125 q 0.10937,0.51562 0.15625,1.21875 0.375,-0.60938 0.875,-0.90625 0.5,-0.29688 1.14062,-0.29688 0.53125,0 0.90625,0.21875 0.375,0.21875 0.59375,0.6875 0.21875,0.45313 0.21875,1.03125 v 2.67188 q 0,0.29687 0.125,0.42187 0.14063,0.125 0.46875,0.125 h 0.375 v 0.4375 h -2.89062 v -0.4375 h 0.28125 q 0.39062,0 0.53125,-0.125 0.15625,-0.125 0.15625,-0.375 v -2.34375 q 0,-0.76562 -0.23438,-1.14062 -0.32812,-0.53125 -1,-0.53125 -0.65625,0 -1.10937,0.54687 -0.4375,0.53125 -0.4375,1.375 v 2.04688 q 0,0.29687 0.14062,0.42187 0.14063,0.125 0.45313,0.125 h 0.39062 v 0.4375 h -2.90625 v -0.4375 h 0.375 q 0.28125,0 0.42188,-0.10937 0.15625,-0.125 0.15625,-0.29688 v -3.54687 q 0,-0.35938 -0.1875,-0.53125 -0.1875,-0.1875 -0.54688,-0.1875 h -0.28125 z m 11.5332,0.29687 q 0.59375,-0.57812 1.07813,-0.57812 0.29687,0 0.48437,0.1875 0.20313,0.1875 0.20313,0.45312 0,0.21875 -0.14063,0.35938 -0.125,0.14062 -0.29687,0.14062 -0.34375,0 -0.45313,-0.40625 -0.0469,-0.17187 -0.15625,-0.17187 -0.20312,0 -0.4375,0.25 0.25,0.35937 0.34375,0.60937 0.0937,0.25 0.0937,0.54688 0,0.51562 -0.25,0.90625 -0.23437,0.375 -0.8125,0.6875 -0.5625,0.29687 -1.09375,0.29687 h -0.64062 q -0.67188,0 -0.89063,0.14063 -0.23437,0.14062 -0.23437,0.42187 0,0.23438 0.1875,0.35938 0.1875,0.10937 0.6875,0.10937 l 1.4375,-0.0156 q 1.10937,0 1.57812,0.35937 0.48438,0.35938 0.48438,1 0,0.70313 -0.54688,1.1875 -0.76562,0.6875 -2.28125,0.6875 -1.26562,0 -1.875,-0.46875 -0.48437,-0.35937 -0.48437,-0.8125 0,-0.34375 0.3125,-0.64062 0.3125,-0.28125 1.03125,-0.42188 -0.57813,-0.14062 -0.875,-0.40625 -0.29688,-0.28125 -0.29688,-0.6875 0,-0.375 0.23438,-0.64062 0.25,-0.28125 0.82812,-0.48438 -0.5,-0.28125 -0.75,-0.67187 -0.25,-0.39063 -0.25,-0.89063 0,-0.79687 0.625,-1.32812 0.625,-0.54688 1.64063,-0.54688 0.40625,0 0.78125,0.125 0.39062,0.10938 0.73437,0.34375 z m -1.53125,-0.0937 q -0.53125,0 -0.875,0.39063 -0.32812,0.375 -0.32812,1.0625 0,0.75 0.32812,1.15625 0.34375,0.40625 0.875,0.40625 0.53125,0 0.85938,-0.39063 0.34375,-0.40625 0.34375,-1.14062 0,-0.6875 -0.34375,-1.07813 -0.34375,-0.40625 -0.85938,-0.40625 z m 0.34375,5.28125 q -1.07812,0 -1.54687,0.29688 -0.45313,0.3125 -0.45313,0.73437 0,0.39063 0.34375,0.625 0.45313,0.29688 1.29688,0.29688 1.01562,0 1.51562,-0.32813 0.51563,-0.32812 0.51563,-0.75 0,-0.23437 -0.15625,-0.45312 -0.15625,-0.20313 -0.5,-0.3125 -0.34375,-0.10938 -1.01563,-0.10938 z"
       id="path83"
       inkscape:connector-curvature="0"
       style="fill:#000000;fill-rule:nonzero" />
    <path
       d="M 453.63254,356.94095 H 568.5932"
       id="path85"
       inkscape:connector-curvature="0"
       style="fill:#000000;fill-opacity:0;fill-rule:evenodd" />
    <path
       d="M 453.63254,356.94095 H 562.5932"
       id="path87"
       inkscape:connector-curvature="0"
       style="fill-rule:evenodd;stroke:#000000;stroke-width:1;stroke-linecap:butt;stroke-linejoin:round" />
    <path
       d="m 562.5932,358.59268 4.53809,-1.65173 -4.53809,-1.65174 z"
       id="path89"
       inkscape:connector-curvature="0"
       style="fill:#000000;fill-rule:evenodd;stroke:#000000;stroke-width:1;stroke-linecap:butt" />
    <path
       d="m 444.60892,323.33466 h 133.0079 v 67.21258 h -133.0079 z"
       id="path91"
       inkscape:connector-curvature="0"
       style="fill:#000000;fill-opacity:0;fill-rule:evenodd" />
    <path
       d="m 480.22125,335.18277 h 6.875 l 0.15625,2.92187 h -0.39063 q -0.23437,-1.375 -0.75,-1.92187 -0.5,-0.5625 -1.3125,-0.5625 h -1.70312 q -0.20313,0 -0.3125,0.125 -0.0937,0.10937 -0.0937,0.32812 v 3.09375 h 0.73437 q 0.60938,0 0.96875,-0.42187 0.375,-0.4375 0.40625,-1.3125 h 0.40625 v 4 h -0.40625 q -0.0312,-0.98438 -0.40625,-1.40625 -0.375,-0.4375 -1.03125,-0.4375 H 482.69 v 3.4375 q 0,0.1875 0.125,0.29687 0.125,0.0937 0.42187,0.0937 h 1.34375 q 2.17188,0 2.51563,-2.79687 h 0.42187 l -0.15625,3.23437 h -7.14062 v -0.4375 h 0.59375 q 0.34375,0 0.48437,-0.125 0.14063,-0.125 0.14063,-0.34375 v -6.875 q 0,-0.21875 -0.125,-0.32812 -0.10938,-0.125 -0.375,-0.125 h -0.71875 z m 8.61914,3.1875 1.5625,-0.10938 q 0.14063,0.625 0.17188,1.17188 0.45312,-0.64063 0.89062,-0.90625 0.45313,-0.26563 0.98438,-0.26563 0.5625,0 0.9375,0.29688 0.375,0.29687 0.5625,0.98437 0.39062,-0.64062 0.875,-0.95312 0.48437,-0.32813 1.04687,-0.32813 0.75,0 1.125,0.45313 0.48438,0.57812 0.48438,1.5 v 2.73437 q 0,0.25 0.125,0.32813 0.15625,0.14062 0.48437,0.14062 h 0.28125 v 0.4375 h -2.76562 v -0.4375 h 0.28125 q 0.34375,0 0.48437,-0.10937 0.14063,-0.125 0.14063,-0.35938 v -2.73437 q 0,-0.60938 -0.29688,-0.9375 -0.29687,-0.32813 -0.78125,-0.32813 -0.375,0 -0.67187,0.20313 -0.29688,0.1875 -0.46875,0.54687 -0.25,0.51563 -0.25,0.89063 v 2.35937 q 0,0.23438 0.125,0.35938 0.125,0.10937 0.40625,0.10937 h 0.375 v 0.4375 h -2.79688 v -0.4375 h 0.3125 q 0.29688,0 0.4375,-0.10937 0.15625,-0.125 0.15625,-0.3125 v -2.53125 q 0,-0.79688 -0.28125,-1.15625 -0.28125,-0.375 -0.76562,-0.375 -0.625,0 -0.95313,0.42187 -0.48437,0.60938 -0.48437,1.40625 v 2.1875 q 0,0.25 0.10937,0.34375 0.17188,0.125 0.5,0.125 h 0.28125 v 0.4375 h -2.76562 v -0.4375 h 0.42187 q 0.23438,0 0.35938,-0.10937 0.125,-0.125 0.125,-0.3125 v -3.59375 q 0,-0.29688 -0.15625,-0.4375 -0.15625,-0.15625 -0.60938,-0.20313 z m 12.0293,-3.28125 v 4.07812 q 0.34375,-0.48437 0.76562,-0.71875 0.42188,-0.25 0.92188,-0.25 0.96875,0 1.625,0.76563 0.67187,0.75 0.67187,1.98437 0,1.34375 -0.71875,2.17188 -0.71875,0.8125 -1.76562,0.8125 -0.51563,0 -0.92188,-0.1875 -0.40625,-0.20313 -0.84375,-0.6875 -0.32812,0.53125 -0.64062,0.875 l -0.23438,-0.0781 q 0.15625,-0.67187 0.15625,-1.40625 v -6.20312 q 0,-0.29688 -0.20312,-0.45313 -0.20313,-0.17187 -0.5625,-0.17187 h -0.25 v -0.4375 z m 1.46875,3.625 q -0.65625,0 -1.07813,0.57812 -0.40625,0.57813 -0.40625,1.90625 0,1.26563 0.40625,1.8125 0.40625,0.54688 1.07813,0.54688 0.59375,0 0.95312,-0.54688 0.45313,-0.67187 0.45313,-1.9375 0,-1.23437 -0.40625,-1.79687 -0.39063,-0.5625 -1,-0.5625 z m 8.6582,2.4375 h -3.9375 q 0.0312,1.25 0.46875,1.76562 0.5,0.57813 1.28125,0.57813 1.15625,0 1.84375,-1.3125 l 0.39063,0.17187 q -0.85938,1.67188 -2.46875,1.67188 -1.10938,0 -1.85938,-0.79688 -0.75,-0.8125 -0.75,-2.04687 0,-1.34375 0.73438,-2.15625 0.75,-0.82813 1.82812,-0.82813 0.79688,0 1.375,0.42188 0.57813,0.40625 0.875,1.17187 0.20313,0.53125 0.21875,1.35938 z m -3.9375,-0.42188 h 2.375 q 0.21875,0 0.32813,-0.14062 0.125,-0.14063 0.125,-0.48438 0,-0.65625 -0.40625,-1.09375 -0.39063,-0.45312 -0.9375,-0.45312 -0.60938,0 -1.04688,0.54687 -0.42187,0.53125 -0.4375,1.625 z m 7.89063,-5.54687 2.15625,-0.0937 v 7.51562 q 0,0.4375 0.15625,0.625 0.17187,0.1875 0.5,0.1875 h 0.39062 v 0.4375 h -1.875 l -0.14062,-1.125 q -0.34375,0.60938 -0.79688,0.90625 -0.4375,0.29688 -1,0.29688 -0.9375,0 -1.59375,-0.78125 -0.65625,-0.78125 -0.65625,-2.07813 0,-1.39062 0.84375,-2.21875 0.65625,-0.65625 1.51563,-0.65625 0.53125,0 0.95312,0.26563 0.42188,0.26562 0.73438,0.79687 v -3.09375 q 0,-0.25 -0.20313,-0.39062 -0.1875,-0.15625 -0.59375,-0.15625 h -0.39062 z m -0.32813,3.5 q -0.64062,0 -1.01562,0.53125 -0.375,0.51562 -0.375,1.75 0,1.34375 0.375,1.89062 0.39062,0.54688 0.98437,0.54688 0.64063,0 1.09375,-0.60938 0.45313,-0.60937 0.45313,-1.79687 0,-1.10938 -0.48438,-1.75 -0.42187,-0.5625 -1.03125,-0.5625 z m 7.21875,-3.5 2.15625,-0.0937 v 7.51562 q 0,0.4375 0.15625,0.625 0.17188,0.1875 0.5,0.1875 h 0.39063 v 0.4375 h -1.875 l -0.14063,-1.125 q -0.34375,0.60938 -0.79687,0.90625 -0.4375,0.29688 -1,0.29688 -0.9375,0 -1.59375,-0.78125 -0.65625,-0.78125 -0.65625,-2.07813 0,-1.39062 0.84375,-2.21875 0.65625,-0.65625 1.51562,-0.65625 0.53125,0 0.95313,0.26563 0.42187,0.26562 0.73437,0.79687 v -3.09375 q 0,-0.25 -0.20312,-0.39062 -0.1875,-0.15625 -0.59375,-0.15625 h -0.39063 z m -0.32812,3.5 q -0.64063,0 -1.01563,0.53125 -0.375,0.51562 -0.375,1.75 0,1.34375 0.375,1.89062 0.39063,0.54688 0.98438,0.54688 0.64062,0 1.09375,-0.60938 0.45312,-0.60937 0.45312,-1.79687 0,-1.10938 -0.48437,-1.75 -0.42188,-0.5625 -1.03125,-0.5625 z m 5.53125,-3.59375 q 0.25,0 0.45312,0.20312 0.20313,0.1875 0.20313,0.46875 0,0.26563 -0.20313,0.45313 -0.1875,0.1875 -0.45312,0.1875 -0.26563,0 -0.46875,-0.1875 -0.1875,-0.20313 -0.1875,-0.46875 0,-0.26563 0.1875,-0.45313 0.20312,-0.20312 0.46875,-0.20312 z m -1.53125,3.28125 2.1875,-0.0781 v 4.73438 q 0,0.1875 0.0937,0.26562 0.14062,0.125 0.34375,0.125 h 0.60937 v 0.4375 h -3.10937 v -0.4375 h 0.57812 q 0.26563,0 0.375,-0.125 0.125,-0.125 0.125,-0.375 v -3.45312 q 0,-0.32813 -0.1875,-0.48438 -0.1875,-0.17187 -0.5625,-0.17187 h -0.45312 z m 3.88867,0 1.82812,-0.125 q 0.10938,0.51562 0.15625,1.21875 0.375,-0.60938 0.875,-0.90625 0.5,-0.29688 1.14063,-0.29688 0.53125,0 0.90625,0.21875 0.375,0.21875 0.59375,0.6875 0.21875,0.45313 0.21875,1.03125 v 2.67188 q 0,0.29687 0.125,0.42187 0.14062,0.125 0.46875,0.125 h 0.375 v 0.4375 h -2.89063 v -0.4375 h 0.28125 q 0.39063,0 0.53125,-0.125 0.15625,-0.125 0.15625,-0.375 v -2.34375 q 0,-0.76562 -0.23437,-1.14062 -0.32813,-0.53125 -1,-0.53125 -0.65625,0 -1.10938,0.54687 -0.4375,0.53125 -0.4375,1.375 v 2.04688 q 0,0.29687 0.14063,0.42187 0.14062,0.125 0.45312,0.125 h 0.39063 v 0.4375 h -2.90625 v -0.4375 h 0.375 q 0.28125,0 0.42187,-0.10937 0.15625,-0.125 0.15625,-0.29688 v -3.54687 q 0,-0.35938 -0.1875,-0.53125 -0.1875,-0.1875 -0.54687,-0.1875 h -0.28125 z m 11.5332,0.29687 q 0.59375,-0.57812 1.07813,-0.57812 0.29687,0 0.48437,0.1875 0.20313,0.1875 0.20313,0.45312 0,0.21875 -0.14063,0.35938 -0.125,0.14062 -0.29687,0.14062 -0.34375,0 -0.45313,-0.40625 -0.0469,-0.17187 -0.15625,-0.17187 -0.20312,0 -0.4375,0.25 0.25,0.35937 0.34375,0.60937 0.0937,0.25 0.0937,0.54688 0,0.51562 -0.25,0.90625 -0.23437,0.375 -0.8125,0.6875 -0.5625,0.29687 -1.09375,0.29687 h -0.64062 q -0.67188,0 -0.89063,0.14063 -0.23437,0.14062 -0.23437,0.42187 0,0.23438 0.1875,0.35938 0.1875,0.10937 0.6875,0.10937 l 1.4375,-0.0156 q 1.10937,0 1.57812,0.35937 0.48438,0.35938 0.48438,1 0,0.70313 -0.54688,1.1875 -0.76562,0.6875 -2.28125,0.6875 -1.26562,0 -1.875,-0.46875 -0.48437,-0.35937 -0.48437,-0.8125 0,-0.34375 0.3125,-0.64062 0.3125,-0.28125 1.03125,-0.42188 -0.57813,-0.14062 -0.875,-0.40625 -0.29688,-0.28125 -0.29688,-0.6875 0,-0.375 0.23438,-0.64062 0.25,-0.28125 0.82812,-0.48438 -0.5,-0.28125 -0.75,-0.67187 -0.25,-0.39063 -0.25,-0.89063 0,-0.79687 0.625,-1.32812 0.625,-0.54688 1.64063,-0.54688 0.40625,0 0.78125,0.125 0.39062,0.10938 0.73437,0.34375 z m -1.53125,-0.0937 q -0.53125,0 -0.875,0.39063 -0.32812,0.375 -0.32812,1.0625 0,0.75 0.32812,1.15625 0.34375,0.40625 0.875,0.40625 0.53125,0 0.85938,-0.39063 0.34375,-0.40625 0.34375,-1.14062 0,-0.6875 -0.34375,-1.07813 -0.34375,-0.40625 -0.85938,-0.40625 z m 0.34375,5.28125 q -1.07812,0 -1.54687,0.29688 -0.45313,0.3125 -0.45313,0.73437 0,0.39063 0.34375,0.625 0.45313,0.29688 1.29688,0.29688 1.01562,0 1.51562,-0.32813 0.51563,-0.32812 0.51563,-0.75 0,-0.23437 -0.15625,-0.45312 -0.15625,-0.20313 -0.5,-0.3125 -0.34375,-0.10938 -1.01563,-0.10938 z"
       id="path93"
       inkscape:connector-curvature="0"
       style="fill:#000000;fill-rule:nonzero" />
    <path
       d="m 495.26324,363.18277 h 4.01562 v 0.4375 h -0.96875 q -0.21875,0 -0.32812,0.125 -0.10938,0.125 -0.10938,0.375 v 6.84375 q 0,0.25 0.14063,0.35937 0.14062,0.0937 0.54687,0.0937 h 1.21875 q 0.96875,0 1.59375,-0.64062 0.625,-0.65625 0.90625,-2.25 h 0.40625 l -0.20312,3.32812 h -7.21875 v -0.4375 h 0.70312 q 0.375,0 0.51563,-0.14062 0.14062,-0.14063 0.14062,-0.4375 v -6.76563 q 0,-0.21875 -0.125,-0.32812 -0.10937,-0.125 -0.35937,-0.125 h -0.875 z m 13.81641,8.0625 0.21875,0.32812 q -0.42188,0.45313 -0.95313,0.45313 -0.39062,0 -0.67187,-0.21875 -0.26563,-0.21875 -0.46875,-0.76563 -0.5625,0.57813 -0.98438,0.78125 -0.42187,0.20313 -1.01562,0.20313 -0.84375,0 -1.28125,-0.35938 -0.4375,-0.375 -0.4375,-0.9375 0,-0.85937 1,-1.42187 1.01562,-0.57813 2.67187,-0.76563 v -0.82812 q 0,-0.4375 -0.35937,-0.75 -0.34375,-0.32813 -0.90625,-0.32813 -0.5,0 -0.875,0.21875 -0.26563,0.15625 -0.26563,0.3125 0,0.0781 0.14063,0.26563 0.17187,0.23437 0.17187,0.42187 0,0.26563 -0.17187,0.4375 -0.17188,0.15625 -0.4375,0.15625 -0.29688,0 -0.5,-0.1875 -0.1875,-0.20312 -0.1875,-0.51562 0,-0.57813 0.65625,-1.0625 0.65625,-0.48438 1.70312,-0.48438 0.98438,0 1.5,0.42188 0.51563,0.42187 0.51563,1.03125 v 3 q 0,0.40625 0.125,0.59375 0.14062,0.1875 0.34375,0.1875 0.21875,0 0.46875,-0.1875 z m -1.92188,-2.3125 q -1.48437,0.20312 -2.10937,0.67187 -0.45313,0.34375 -0.45313,1 0,0.45313 0.23438,0.70313 0.25,0.25 0.625,0.25 0.70312,0 1.20312,-0.51563 0.5,-0.53125 0.5,-1.32812 z m 2.67383,-2.5625 h 2.64062 v 0.39062 h -0.25 q -0.34375,0 -0.46875,0.0937 -0.125,0.0937 -0.125,0.26563 0,0.0625 0.0312,0.14062 l 1.53125,3.3125 1.14063,-2.75 q 0.10937,-0.28125 0.10937,-0.5625 0,-0.21875 -0.17187,-0.34375 -0.15625,-0.125 -0.67188,-0.15625 v -0.39062 h 2.28125 v 0.39062 q -0.65625,0.0625 -0.89062,0.59375 l -2.01563,4.73438 q -0.53125,1.20312 -1.04687,1.64062 -0.53125,0.46875 -1.14063,0.46875 -0.4375,0 -0.70312,-0.25 -0.26563,-0.23437 -0.26563,-0.59375 0,-0.25 0.15625,-0.42187 0.17188,-0.17188 0.42188,-0.17188 0.21875,0 0.375,0.14063 0.15625,0.15625 0.15625,0.35937 0,0.0625 -0.0312,0.17188 -0.0156,0.0937 -0.0156,0.125 0,0.14062 0.17188,0.14062 0.20312,0 0.4375,-0.14062 0.25,-0.14063 0.45312,-0.45313 0.21875,-0.3125 0.75,-1.375 l -2.09375,-4.46875 q -0.10937,-0.23437 -0.28125,-0.34375 -0.15625,-0.10937 -0.48437,-0.15625 z m 11.72656,2.78125 h -3.9375 q 0.0312,1.25 0.46875,1.76562 0.5,0.57813 1.28125,0.57813 1.15625,0 1.84375,-1.3125 l 0.39063,0.17187 q -0.85938,1.67188 -2.46875,1.67188 -1.10938,0 -1.85938,-0.79688 -0.75,-0.8125 -0.75,-2.04687 0,-1.34375 0.73438,-2.15625 0.75,-0.82813 1.82812,-0.82813 0.79688,0 1.375,0.42188 0.57813,0.40625 0.875,1.17187 0.20313,0.53125 0.21875,1.35938 z m -3.9375,-0.42188 h 2.375 q 0.21875,0 0.32813,-0.14062 0.125,-0.14063 0.125,-0.48438 0,-0.65625 -0.40625,-1.09375 -0.39063,-0.45312 -0.9375,-0.45312 -0.60938,0 -1.04688,0.54687 -0.42187,0.53125 -0.4375,1.625 z m 4.70313,-2.35937 1.96875,-0.10938 v 2.21875 q 0.3125,-1.09375 0.75,-1.65625 0.45312,-0.5625 1.10937,-0.5625 0.45313,0 0.71875,0.28125 0.26563,0.26563 0.26563,0.71875 0,0.375 -0.1875,0.57813 -0.17188,0.20312 -0.4375,0.20312 -0.26563,0 -0.4375,-0.17187 -0.15625,-0.17188 -0.15625,-0.46875 0,-0.20313 0.0937,-0.375 0.0937,-0.14063 0.0937,-0.17188 0,-0.0937 -0.10938,-0.0937 -0.25,0 -0.54687,0.28125 -0.42188,0.39063 -0.65625,1.07813 -0.34375,1.0625 -0.34375,1.70312 v 1.1875 q 0,0.1875 0.14062,0.29688 0.14063,0.10937 0.46875,0.10937 h 0.70313 v 0.4375 h -3.40625 v -0.4375 h 0.54687 q 0.26563,0 0.40625,-0.10937 0.14063,-0.10938 0.14063,-0.26563 v -3.5 q 0,-0.39062 -0.17188,-0.57812 -0.15625,-0.1875 -0.48437,-0.1875 h -0.46875 z"
       id="path95"
       inkscape:connector-curvature="0"
       style="fill:#000000;fill-rule:nonzero" />
    <path
       d="m 495.65878,230.54199 h 37.33072 v 35.03149 h -37.33072 z"
       id="path97"
       inkscape:connector-curvature="0"
       style="fill:#cfe2f3;fill-rule:evenodd" />
    <path
       d="m 532.9895,230.54199 11.67719,-11.67717 v 35.03151 l -11.67719,11.67715 z"
       id="path99"
       inkscape:connector-curvature="0"
       style="fill:#a5b4c2;fill-rule:evenodd" />
    <path
       d="m 495.65878,230.54199 11.67718,-11.67717 h 37.33073 l -11.67719,11.67717 z"
       id="path101"
       inkscape:connector-curvature="0"
       style="fill:#d8e7f5;fill-rule:evenodd" />
    <path
       d="m 495.65878,230.54199 11.67718,-11.67717 h 37.33073 v 35.03151 l -11.67719,11.67715 h -37.33072 z m 0,0 h 37.33072 l 11.67719,-11.67717 m -11.67719,11.67717 v 35.03149"
       id="path103"
       inkscape:connector-curvature="0"
       style="fill:#000000;fill-opacity:0;fill-rule:evenodd" />
    <path
       d="m 495.65878,230.54199 11.67718,-11.67717 h 37.33073 v 35.03151 l -11.67719,11.67715 h -37.33072 z m 0,0 h 37.33072 l 11.67719,-11.67717 m -11.67719,11.67717 v 35.03149"
       id="path105"
       inkscape:connector-curvature="0"
       style="fill-rule:evenodd;stroke:#000000;stroke-width:1;stroke-linecap:butt;stroke-linejoin:round" />
    <path
       d="m 453.63254,175.33464 h 133.0079 v 67.2126 h -133.0079 z"
       id="path107"
       inkscape:connector-curvature="0"
       style="fill:#000000;fill-opacity:0;fill-rule:evenodd" />
    <path
       d="m 472.0056,187.18277 h 2.89063 v 0.4375 h -0.20313 q -0.45312,0 -0.57812,0.0781 -0.125,0.0625 -0.125,0.21875 0,0.10938 0.0937,0.34375 l 0.0312,0.10938 1.76562,5.5 1.54688,-5.07813 q -0.28125,-0.875 -0.42188,-1.01562 -0.14062,-0.15625 -0.5625,-0.15625 h -0.53125 v -0.4375 h 3.60938 v 0.4375 h -0.375 q -0.48438,0 -0.64063,0.0937 -0.14062,0.0781 -0.14062,0.23437 0,0.125 0.0312,0.21875 l 1.79687,5.70313 1.48438,-4.9375 q 0.0937,-0.28125 0.0937,-0.54688 0,-0.39062 -0.1875,-0.57812 -0.17188,-0.1875 -0.53125,-0.1875 h -0.26563 v -0.4375 h 2.71875 v 0.4375 q -0.35937,0.0469 -0.57812,0.1875 -0.20313,0.125 -0.35938,0.35937 -0.15625,0.23438 -0.3125,0.76563 l -2.14062,7.125 h -0.40625 l -2,-6.35938 -1.90625,6.35938 h -0.4375 l -2.4375,-7.6875 q -0.14063,-0.45313 -0.32813,-0.59375 -0.1875,-0.15625 -0.59375,-0.15625 z m 14.55273,3.01562 q 1.10938,0 1.85938,0.79688 0.75,0.79687 0.75,2.10937 0,0.90625 -0.34375,1.54688 -0.32813,0.625 -0.95313,1 -0.625,0.375 -1.34375,0.375 -1.0625,0 -1.8125,-0.8125 -0.73437,-0.8125 -0.73437,-2.10938 0,-1.28125 0.73437,-2.09375 0.75,-0.8125 1.84375,-0.8125 z m 0,0.42188 q -0.65625,0 -1.07812,0.59375 -0.42188,0.59375 -0.42188,1.875 0,1.3125 0.42188,1.92187 0.42187,0.59375 1.07812,0.59375 0.6875,0 1.10938,-0.59375 0.42187,-0.60937 0.42187,-1.98437 0,-1.28125 -0.42187,-1.84375 -0.40625,-0.5625 -1.10938,-0.5625 z m 3.32813,-0.25 1.96875,-0.10938 v 2.21875 q 0.3125,-1.09375 0.75,-1.65625 0.45312,-0.5625 1.10937,-0.5625 0.45313,0 0.71875,0.28125 0.26563,0.26563 0.26563,0.71875 0,0.375 -0.1875,0.57813 -0.17188,0.20312 -0.4375,0.20312 -0.26563,0 -0.4375,-0.17187 -0.15625,-0.17188 -0.15625,-0.46875 0,-0.20313 0.0937,-0.375 0.0937,-0.14063 0.0937,-0.17188 0,-0.0937 -0.10938,-0.0937 -0.25,0 -0.54687,0.28125 -0.42188,0.39063 -0.65625,1.07813 -0.34375,1.0625 -0.34375,1.70312 v 1.1875 q 0,0.1875 0.14062,0.29688 0.14063,0.10937 0.46875,0.10937 h 0.70313 v 0.4375 h -3.40625 v -0.4375 h 0.54687 q 0.26563,0 0.40625,-0.10937 0.14063,-0.10938 0.14063,-0.26563 v -3.5 q 0,-0.39062 -0.17188,-0.57812 -0.15625,-0.1875 -0.48437,-0.1875 h -0.46875 z m 8.51367,-3.1875 2.15625,-0.0937 v 7.51562 q 0,0.4375 0.15625,0.625 0.17188,0.1875 0.5,0.1875 h 0.39063 v 0.4375 h -1.875 l -0.14063,-1.125 q -0.34375,0.60938 -0.79687,0.90625 -0.4375,0.29688 -1,0.29688 -0.9375,0 -1.59375,-0.78125 -0.65625,-0.78125 -0.65625,-2.07813 0,-1.39062 0.84375,-2.21875 0.65625,-0.65625 1.51562,-0.65625 0.53125,0 0.95313,0.26563 0.42187,0.26562 0.73437,0.79687 v -3.09375 q 0,-0.25 -0.20312,-0.39062 -0.1875,-0.15625 -0.59375,-0.15625 h -0.39063 z m -0.32812,3.5 q -0.64063,0 -1.01563,0.53125 -0.375,0.51562 -0.375,1.75 0,1.34375 0.375,1.89062 0.39063,0.54688 0.98438,0.54688 0.64062,0 1.09375,-0.60938 0.45312,-0.60937 0.45312,-1.79687 0,-1.10938 -0.48437,-1.75 -0.42188,-0.5625 -1.03125,-0.5625 z m 7.83398,-3.5 h 6.875 l 0.15625,2.92187 h -0.39062 q -0.23438,-1.375 -0.75,-1.92187 -0.5,-0.5625 -1.3125,-0.5625 h -1.70313 q -0.20312,0 -0.3125,0.125 -0.0937,0.10937 -0.0937,0.32812 v 3.09375 h 0.73438 q 0.60937,0 0.96875,-0.42187 0.375,-0.4375 0.40625,-1.3125 h 0.40625 v 4 h -0.40625 q -0.0312,-0.98438 -0.40625,-1.40625 -0.375,-0.4375 -1.03125,-0.4375 h -0.67188 v 3.4375 q 0,0.1875 0.125,0.29687 0.125,0.0937 0.42188,0.0937 h 1.34375 q 2.17187,0 2.51562,-2.79687 h 0.42188 l -0.15625,3.23437 h -7.14063 v -0.4375 h 0.59375 q 0.34375,0 0.48438,-0.125 0.14062,-0.125 0.14062,-0.34375 v -6.875 q 0,-0.21875 -0.125,-0.32812 -0.10937,-0.125 -0.375,-0.125 h -0.71875 z m 8.61914,3.1875 1.5625,-0.10938 q 0.14063,0.625 0.17188,1.17188 0.45312,-0.64063 0.89062,-0.90625 0.45313,-0.26563 0.98438,-0.26563 0.5625,0 0.9375,0.29688 0.375,0.29687 0.5625,0.98437 0.39062,-0.64062 0.875,-0.95312 0.48437,-0.32813 1.04687,-0.32813 0.75,0 1.125,0.45313 0.48438,0.57812 0.48438,1.5 v 2.73437 q 0,0.25 0.125,0.32813 0.15625,0.14062 0.48437,0.14062 h 0.28125 v 0.4375 h -2.76562 v -0.4375 h 0.28125 q 0.34375,0 0.48437,-0.10937 0.14063,-0.125 0.14063,-0.35938 v -2.73437 q 0,-0.60938 -0.29688,-0.9375 -0.29687,-0.32813 -0.78125,-0.32813 -0.375,0 -0.67187,0.20313 -0.29688,0.1875 -0.46875,0.54687 -0.25,0.51563 -0.25,0.89063 v 2.35937 q 0,0.23438 0.125,0.35938 0.125,0.10937 0.40625,0.10937 h 0.375 v 0.4375 h -2.79688 v -0.4375 h 0.3125 q 0.29688,0 0.4375,-0.10937 0.15625,-0.125 0.15625,-0.3125 v -2.53125 q 0,-0.79688 -0.28125,-1.15625 -0.28125,-0.375 -0.76562,-0.375 -0.625,0 -0.95313,0.42187 -0.48437,0.60938 -0.48437,1.40625 v 2.1875 q 0,0.25 0.10937,0.34375 0.17188,0.125 0.5,0.125 h 0.28125 v 0.4375 h -2.76562 v -0.4375 h 0.42187 q 0.23438,0 0.35938,-0.10937 0.125,-0.125 0.125,-0.3125 v -3.59375 q 0,-0.29688 -0.15625,-0.4375 -0.15625,-0.15625 -0.60938,-0.20313 z m 12.0293,-3.28125 v 4.07812 q 0.34375,-0.48437 0.76562,-0.71875 0.42188,-0.25 0.92188,-0.25 0.96875,0 1.625,0.76563 0.67187,0.75 0.67187,1.98437 0,1.34375 -0.71875,2.17188 -0.71875,0.8125 -1.76562,0.8125 -0.51563,0 -0.92188,-0.1875 -0.40625,-0.20313 -0.84375,-0.6875 -0.32812,0.53125 -0.64062,0.875 l -0.23438,-0.0781 q 0.15625,-0.67187 0.15625,-1.40625 v -6.20312 q 0,-0.29688 -0.20312,-0.45313 -0.20313,-0.17187 -0.5625,-0.17187 h -0.25 v -0.4375 z m 1.46875,3.625 q -0.65625,0 -1.07813,0.57812 -0.40625,0.57813 -0.40625,1.90625 0,1.26563 0.40625,1.8125 0.40625,0.54688 1.07813,0.54688 0.59375,0 0.95312,-0.54688 0.45313,-0.67187 0.45313,-1.9375 0,-1.23437 -0.40625,-1.79687 -0.39063,-0.5625 -1,-0.5625 z m 8.6582,2.4375 h -3.9375 q 0.0312,1.25 0.46875,1.76562 0.5,0.57813 1.28125,0.57813 1.15625,0 1.84375,-1.3125 l 0.39063,0.17187 q -0.85938,1.67188 -2.46875,1.67188 -1.10938,0 -1.85938,-0.79688 -0.75,-0.8125 -0.75,-2.04687 0,-1.34375 0.73438,-2.15625 0.75,-0.82813 1.82812,-0.82813 0.79688,0 1.375,0.42188 0.57813,0.40625 0.875,1.17187 0.20313,0.53125 0.21875,1.35938 z m -3.9375,-0.42188 h 2.375 q 0.21875,0 0.32813,-0.14062 0.125,-0.14063 0.125,-0.48438 0,-0.65625 -0.40625,-1.09375 -0.39063,-0.45312 -0.9375,-0.45312 -0.60938,0 -1.04688,0.54687 -0.42187,0.53125 -0.4375,1.625 z m 7.89063,-5.54687 2.15625,-0.0937 v 7.51562 q 0,0.4375 0.15625,0.625 0.17187,0.1875 0.5,0.1875 h 0.39062 v 0.4375 h -1.875 l -0.14062,-1.125 q -0.34375,0.60938 -0.79688,0.90625 -0.4375,0.29688 -1,0.29688 -0.9375,0 -1.59375,-0.78125 -0.65625,-0.78125 -0.65625,-2.07813 0,-1.39062 0.84375,-2.21875 0.65625,-0.65625 1.51563,-0.65625 0.53125,0 0.95312,0.26563 0.42188,0.26562 0.73438,0.79687 v -3.09375 q 0,-0.25 -0.20313,-0.39062 -0.1875,-0.15625 -0.59375,-0.15625 h -0.39062 z m -0.32813,3.5 q -0.64062,0 -1.01562,0.53125 -0.375,0.51562 -0.375,1.75 0,1.34375 0.375,1.89062 0.39062,0.54688 0.98437,0.54688 0.64063,0 1.09375,-0.60938 0.45313,-0.60937 0.45313,-1.79687 0,-1.10938 -0.48438,-1.75 -0.42187,-0.5625 -1.03125,-0.5625 z m 7.21875,-3.5 2.15625,-0.0937 v 7.51562 q 0,0.4375 0.15625,0.625 0.17188,0.1875 0.5,0.1875 h 0.39063 v 0.4375 h -1.875 l -0.14063,-1.125 q -0.34375,0.60938 -0.79687,0.90625 -0.4375,0.29688 -1,0.29688 -0.9375,0 -1.59375,-0.78125 -0.65625,-0.78125 -0.65625,-2.07813 0,-1.39062 0.84375,-2.21875 0.65625,-0.65625 1.51562,-0.65625 0.53125,0 0.95313,0.26563 0.42187,0.26562 0.73437,0.79687 v -3.09375 q 0,-0.25 -0.20312,-0.39062 -0.1875,-0.15625 -0.59375,-0.15625 h -0.39063 z m -0.32812,3.5 q -0.64063,0 -1.01563,0.53125 -0.375,0.51562 -0.375,1.75 0,1.34375 0.375,1.89062 0.39063,0.54688 0.98438,0.54688 0.64062,0 1.09375,-0.60938 0.45312,-0.60937 0.45312,-1.79687 0,-1.10938 -0.48437,-1.75 -0.42188,-0.5625 -1.03125,-0.5625 z m 5.53125,-3.59375 q 0.25,0 0.45312,0.20312 0.20313,0.1875 0.20313,0.46875 0,0.26563 -0.20313,0.45313 -0.1875,0.1875 -0.45312,0.1875 -0.26563,0 -0.46875,-0.1875 -0.1875,-0.20313 -0.1875,-0.46875 0,-0.26563 0.1875,-0.45313 0.20312,-0.20312 0.46875,-0.20312 z m -1.53125,3.28125 2.1875,-0.0781 v 4.73438 q 0,0.1875 0.0937,0.26562 0.14062,0.125 0.34375,0.125 h 0.60937 v 0.4375 h -3.10937 v -0.4375 h 0.57812 q 0.26563,0 0.375,-0.125 0.125,-0.125 0.125,-0.375 v -3.45312 q 0,-0.32813 -0.1875,-0.48438 -0.1875,-0.17187 -0.5625,-0.17187 h -0.45312 z m 3.88867,0 1.82812,-0.125 q 0.10938,0.51562 0.15625,1.21875 0.375,-0.60938 0.875,-0.90625 0.5,-0.29688 1.14063,-0.29688 0.53125,0 0.90625,0.21875 0.375,0.21875 0.59375,0.6875 0.21875,0.45313 0.21875,1.03125 v 2.67188 q 0,0.29687 0.125,0.42187 0.14062,0.125 0.46875,0.125 h 0.375 v 0.4375 h -2.89063 v -0.4375 h 0.28125 q 0.39063,0 0.53125,-0.125 0.15625,-0.125 0.15625,-0.375 v -2.34375 q 0,-0.76562 -0.23437,-1.14062 -0.32813,-0.53125 -1,-0.53125 -0.65625,0 -1.10938,0.54687 -0.4375,0.53125 -0.4375,1.375 v 2.04688 q 0,0.29687 0.14063,0.42187 0.14062,0.125 0.45312,0.125 h 0.39063 v 0.4375 h -2.90625 v -0.4375 h 0.375 q 0.28125,0 0.42187,-0.10937 0.15625,-0.125 0.15625,-0.29688 v -3.54687 q 0,-0.35938 -0.1875,-0.53125 -0.1875,-0.1875 -0.54687,-0.1875 h -0.28125 z m 11.5332,0.29687 q 0.59375,-0.57812 1.07813,-0.57812 0.29687,0 0.48437,0.1875 0.20313,0.1875 0.20313,0.45312 0,0.21875 -0.14063,0.35938 -0.125,0.14062 -0.29687,0.14062 -0.34375,0 -0.45313,-0.40625 -0.0469,-0.17187 -0.15625,-0.17187 -0.20312,0 -0.4375,0.25 0.25,0.35937 0.34375,0.60937 0.0937,0.25 0.0937,0.54688 0,0.51562 -0.25,0.90625 -0.23437,0.375 -0.8125,0.6875 -0.5625,0.29687 -1.09375,0.29687 h -0.64062 q -0.67188,0 -0.89063,0.14063 -0.23437,0.14062 -0.23437,0.42187 0,0.23438 0.1875,0.35938 0.1875,0.10937 0.6875,0.10937 l 1.4375,-0.0156 q 1.10937,0 1.57812,0.35937 0.48438,0.35938 0.48438,1 0,0.70313 -0.54688,1.1875 -0.76562,0.6875 -2.28125,0.6875 -1.26562,0 -1.875,-0.46875 -0.48437,-0.35937 -0.48437,-0.8125 0,-0.34375 0.3125,-0.64062 0.3125,-0.28125 1.03125,-0.42188 -0.57813,-0.14062 -0.875,-0.40625 -0.29688,-0.28125 -0.29688,-0.6875 0,-0.375 0.23438,-0.64062 0.25,-0.28125 0.82812,-0.48438 -0.5,-0.28125 -0.75,-0.67187 -0.25,-0.39063 -0.25,-0.89063 0,-0.79687 0.625,-1.32812 0.625,-0.54688 1.64063,-0.54688 0.40625,0 0.78125,0.125 0.39062,0.10938 0.73437,0.34375 z m -1.53125,-0.0937 q -0.53125,0 -0.875,0.39063 -0.32812,0.375 -0.32812,1.0625 0,0.75 0.32812,1.15625 0.34375,0.40625 0.875,0.40625 0.53125,0 0.85938,-0.39063 0.34375,-0.40625 0.34375,-1.14062 0,-0.6875 -0.34375,-1.07813 -0.34375,-0.40625 -0.85938,-0.40625 z m 0.34375,5.28125 q -1.07812,0 -1.54687,0.29688 -0.45313,0.3125 -0.45313,0.73437 0,0.39063 0.34375,0.625 0.45313,0.29688 1.29688,0.29688 1.01562,0 1.51562,-0.32813 0.51563,-0.32812 0.51563,-0.75 0,-0.23437 -0.15625,-0.45312 -0.15625,-0.20313 -0.5,-0.3125 -0.34375,-0.10938 -1.01563,-0.10938 z"
       id="path109"
       inkscape:connector-curvature="0"
       style="fill:#000000;fill-rule:nonzero" />
    <path
       d="m 501.22925,201.18277 h 2.89062 l 2.57813,6.84375 2.39062,-6.84375 h 2.95313 v 0.4375 H 511.323 q -0.39063,0 -0.53125,0.125 -0.125,0.10937 -0.125,0.375 v 6.85937 q 0,0.21875 0.15625,0.32813 0.17187,0.10937 0.54687,0.10937 h 0.67188 v 0.4375 H 508.073 v -0.4375 h 0.73437 q 0.32813,0 0.46875,-0.125 0.15625,-0.125 0.15625,-0.3125 v -7.35937 l -2.85937,8.23437 h -0.40625 l -3.07813,-8.1875 v 6.29688 q 0,0.5625 0.14063,0.84375 0.14062,0.26562 0.39062,0.42187 0.26563,0.15625 0.875,0.1875 v 0.4375 h -3.26562 v -0.4375 q 0.79687,-0.0625 1.07812,-0.34375 0.29688,-0.29687 0.29688,-1.04687 v -5.96875 q 0,-0.21875 -0.14063,-0.32813 -0.125,-0.10937 -0.5,-0.10937 h -0.73437 z m 17.31055,8.0625 0.21875,0.32812 q -0.42188,0.45313 -0.95313,0.45313 -0.39062,0 -0.67187,-0.21875 -0.26563,-0.21875 -0.46875,-0.76563 -0.5625,0.57813 -0.98438,0.78125 -0.42187,0.20313 -1.01562,0.20313 -0.84375,0 -1.28125,-0.35938 -0.4375,-0.375 -0.4375,-0.9375 0,-0.85937 1,-1.42187 1.01562,-0.57813 2.67187,-0.76563 v -0.82812 q 0,-0.4375 -0.35937,-0.75 -0.34375,-0.32813 -0.90625,-0.32813 -0.5,0 -0.875,0.21875 -0.26563,0.15625 -0.26563,0.3125 0,0.0781 0.14063,0.26563 0.17187,0.23437 0.17187,0.42187 0,0.26563 -0.17187,0.4375 -0.17188,0.15625 -0.4375,0.15625 -0.29688,0 -0.5,-0.1875 -0.1875,-0.20312 -0.1875,-0.51562 0,-0.57813 0.65625,-1.0625 0.65625,-0.48438 1.70312,-0.48438 0.98438,0 1.5,0.42188 0.51563,0.42187 0.51563,1.03125 v 3 q 0,0.40625 0.125,0.59375 0.14062,0.1875 0.34375,0.1875 0.21875,0 0.46875,-0.1875 z m -1.92188,-2.3125 q -1.48437,0.20312 -2.10937,0.67187 -0.45313,0.34375 -0.45313,1 0,0.45313 0.23438,0.70313 0.25,0.25 0.625,0.25 0.70312,0 1.20312,-0.51563 0.5,-0.53125 0.5,-1.32812 z m 4.23633,-4.8125 h 0.40625 v 2.25 h 1.78125 v 0.53125 h -1.78125 v 3.51562 q 0,0.46875 0.21875,0.71875 0.21875,0.23438 0.54687,0.23438 0.40625,0 0.6875,-0.35938 0.28125,-0.375 0.32813,-1.23437 h 0.39062 q -0.0469,1.09375 -0.51562,1.625 -0.45313,0.53125 -1.1875,0.53125 -0.6875,0 -1.07813,-0.35938 -0.375,-0.375 -0.375,-0.98437 v -3.6875 H 519.323 v -0.40625 q 0.65625,-0.10938 1,-0.54688 0.5,-0.65625 0.53125,-1.82812 z m 3.1543,2.25 1.96875,-0.10938 v 2.21875 q 0.3125,-1.09375 0.75,-1.65625 0.45312,-0.5625 1.10937,-0.5625 0.45313,0 0.71875,0.28125 0.26563,0.26563 0.26563,0.71875 0,0.375 -0.1875,0.57813 -0.17188,0.20312 -0.4375,0.20312 -0.26563,0 -0.4375,-0.17187 -0.15625,-0.17188 -0.15625,-0.46875 0,-0.20313 0.0937,-0.375 0.0937,-0.14063 0.0937,-0.17188 0,-0.0937 -0.10938,-0.0937 -0.25,0 -0.54687,0.28125 -0.42188,0.39063 -0.65625,1.07813 -0.34375,1.0625 -0.34375,1.70312 v 1.1875 q 0,0.1875 0.14062,0.29688 0.14063,0.10937 0.46875,0.10937 h 0.70313 v 0.4375 h -3.40625 v -0.4375 h 0.54687 q 0.26563,0 0.40625,-0.10937 0.14063,-0.10938 0.14063,-0.26563 v -3.5 q 0,-0.39062 -0.17188,-0.57812 -0.15625,-0.1875 -0.48437,-0.1875 h -0.46875 z m 6.82617,-3.28125 q 0.25,0 0.45312,0.20312 0.20313,0.1875 0.20313,0.46875 0,0.26563 -0.20313,0.45313 -0.1875,0.1875 -0.45312,0.1875 -0.26563,0 -0.46875,-0.1875 -0.1875,-0.20313 -0.1875,-0.46875 0,-0.26563 0.1875,-0.45313 0.20312,-0.20312 0.46875,-0.20312 z m -1.53125,3.28125 2.1875,-0.0781 v 4.73438 q 0,0.1875 0.0937,0.26562 0.14062,0.125 0.34375,0.125 h 0.60937 v 0.4375 h -3.10937 v -0.4375 h 0.57812 q 0.26563,0 0.375,-0.125 0.125,-0.125 0.125,-0.375 v -3.45312 q 0,-0.32813 -0.1875,-0.48438 -0.1875,-0.17187 -0.5625,-0.17187 h -0.45312 z m 3.7793,0 h 2.65625 v 0.39062 q -0.65625,0.0312 -0.65625,0.23438 0,0.0937 0.10937,0.23437 l 0.95313,1.26563 0.92187,-1.17188 q 0.0937,-0.125 0.0937,-0.23437 0,-0.25 -0.70312,-0.32813 v -0.39062 h 2.3125 v 0.39062 q -0.82813,0.14063 -1.28125,0.70313 l -1.07813,1.34375 1.70313,2.20312 q 0.17187,0.21875 0.35937,0.3125 0.20313,0.0937 0.59375,0.0937 v 0.4375 h -2.8125 v -0.4375 h 0.20313 q 0.3125,0 0.45312,-0.0625 0.0937,-0.0469 0.0937,-0.125 0,-0.0625 -0.10937,-0.21875 l -1.09375,-1.45312 -0.89063,1.14062 q -0.1875,0.23438 -0.1875,0.375 0,0.15625 0.125,0.23438 0.1875,0.0937 0.625,0.10937 v 0.4375 h -2.39062 v -0.4375 q 0.4375,-0.0469 0.67187,-0.1875 0.39063,-0.23437 0.6875,-0.625 l 1.09375,-1.375 -1.60937,-2.09375 q -0.26563,-0.34375 -0.84375,-0.375 z"
       id="path111"
       inkscape:connector-curvature="0"
       style="fill:#000000;fill-rule:nonzero" />
    <path
       d="m 503.65878,320.28217 h 3.36221 v -47.41733 h 6.72443 v 47.41733 h 3.36218 l -6.72439,6.7244 z"
       id="path113"
       inkscape:connector-curvature="0"
       style="fill:#cfe2f3;fill-rule:evenodd" />
    <path
       d="m 503.65878,320.28217 h 3.36221 v -47.41733 h 6.72443 v 47.41733 h 3.36218 l -6.72439,6.7244 z"
       id="path115"
       inkscape:connector-curvature="0"
       style="fill-rule:evenodd;stroke:#000000;stroke-width:1;stroke-linecap:butt;stroke-linejoin:round" />
  </g>
</svg>
